{"glyphs":{"0":{"ha":833,"x_min":0,"x_max":0,"o":"m 418 944 b 269 916 365 944 315 935 b 151 835 224 898 184 871 b 30 463 70 748 30 624 b 169 75 30 292 76 163 b 416 -18 234 13 317 -18 b 676 82 522 -18 608 15 b 772 238 718 124 750 176 b 804 449 793 300 804 371 b 773 672 804 534 794 608 b 677 835 752 735 720 790 b 418 944 608 908 522 944 z m 420 731 b 503 682 455 731 483 715 b 532 592 516 662 526 632 b 543 456 539 553 543 507 b 513 258 543 366 533 300 b 419 195 493 216 462 195 b 322 260 375 195 343 216 b 292 464 302 304 292 372 b 322 666 292 556 302 623 b 420 731 343 709 375 731 z "},"1":{"ha":833,"x_min":0,"x_max":0,"o":"m 596 926 l 344 926 l 182 704 l 344 704 l 344 0 l 596 0 z "},"2":{"ha":835,"x_min":0,"x_max":0,"o":"m 96 926 l 96 706 l 377 706 b 458 687 417 706 444 700 b 479 637 472 675 479 659 b 457 587 479 615 472 598 b 391 570 442 575 420 570 l 286 570 b 191 555 247 570 215 565 b 129 507 167 545 146 529 b 102 456 116 491 107 474 b 94 389 97 438 94 415 b 96 350 94 382 95 369 l 396 350 b 534 363 451 350 497 354 b 607 394 559 369 583 379 b 671 449 631 410 652 428 b 741 637 718 501 741 564 b 722 743 741 674 735 709 b 667 832 709 777 691 807 b 558 904 636 866 600 890 b 397 926 517 918 463 926 z m 705 220 l 96 220 l 96 0 l 705 0 z "},"3":{"ha":833,"x_min":0,"x_max":0,"o":"m 319 570 l 170 350 l 375 350 b 454 334 411 350 437 345 b 478 284 470 324 478 307 b 461 238 478 266 472 251 b 437 223 454 230 446 225 b 389 220 428 221 412 220 l 94 220 l 94 0 l 420 0 b 572 25 480 0 531 8 b 677 104 613 42 648 68 b 740 292 719 156 740 219 b 659 488 740 373 713 438 b 413 570 600 543 518 570 z m 722 926 l 94 926 l 94 706 l 566 706 z "},"4":{"ha":833,"x_min":0,"x_max":0,"o":"m 627 926 l 353 926 l 66 350 l 758 350 l 758 570 l 452 570 z m 674 220 l 353 220 l 353 0 l 674 0 z "},"5":{"ha":833,"x_min":0,"x_max":0,"o":"m 113 570 l 113 350 l 382 350 b 454 334 415 350 438 345 b 477 286 469 324 477 308 b 453 237 477 265 469 249 b 384 220 437 225 414 220 l 113 220 l 113 0 l 407 0 b 557 21 466 0 516 7 b 662 89 597 36 633 58 b 718 179 686 115 705 145 b 739 286 732 214 739 250 b 720 390 739 322 732 356 b 666 477 707 423 689 452 b 557 547 637 509 600 532 b 397 570 513 562 460 570 z m 686 926 l 113 926 l 113 706 l 686 706 z "},"6":{"ha":833,"x_min":0,"x_max":0,"o":"m 610 926 l 317 926 l 132 597 b 65 452 100 542 78 493 b 45 327 52 411 45 369 b 69 198 45 282 53 239 b 136 91 84 157 107 122 b 258 9 169 55 209 28 b 418 -18 306 -9 359 -18 b 596 18 484 -18 544 -6 b 725 121 649 42 692 76 b 788 322 767 178 788 245 b 773 432 788 361 783 397 b 718 570 764 467 745 513 l 432 570 b 510 426 470 510 495 462 b 531 321 524 390 531 355 b 498 231 531 285 520 255 b 418 195 477 207 450 195 b 340 227 388 195 362 205 b 302 319 315 250 302 281 b 316 392 302 343 307 367 b 365 492 325 417 341 451 z "},"7":{"ha":833,"x_min":0,"x_max":0,"o":"m 618 570 l 361 570 l 170 0 l 435 0 z m 735 926 l 98 926 l 98 706 l 664 706 z "},"8":{"ha":833,"x_min":0,"x_max":0,"o":"m 662 481 b 736 550 696 509 721 531 b 784 686 768 590 784 636 b 762 782 784 719 777 751 b 702 862 748 813 728 839 b 422 944 638 917 545 944 b 135 867 296 944 201 918 b 69 787 106 845 85 818 b 46 686 54 755 46 722 b 86 558 46 640 59 597 b 165 481 101 536 128 510 b 107 434 140 463 121 447 b 71 392 93 421 81 407 b 29 254 43 353 29 307 b 110 71 29 179 56 118 b 237 4 145 41 187 18 b 411 -18 286 -11 344 -18 b 579 1 475 -18 531 -12 b 704 60 627 14 669 33 b 804 260 771 110 804 177 b 760 399 804 312 790 358 b 723 439 750 413 737 427 b 662 481 708 451 688 465 z m 429 474 b 507 404 467 445 493 421 b 547 309 534 372 547 340 b 511 227 547 275 535 248 b 416 195 486 205 455 195 b 322 226 377 195 346 205 b 286 307 298 247 286 274 b 295 354 286 324 289 340 b 326 401 301 368 312 384 b 402 474 340 419 365 443 b 323 560 363 510 337 539 b 303 628 310 581 303 604 b 334 703 303 659 314 684 b 416 731 355 722 382 731 b 494 703 449 731 475 722 b 527 629 516 682 527 657 b 506 559 527 605 520 582 b 429 474 491 537 466 508 z "},"9":{"ha":833,"x_min":0,"x_max":0,"o":"m 229 0 l 519 0 l 711 347 b 771 480 740 399 760 444 b 788 597 782 517 788 556 b 765 728 788 643 780 687 b 697 836 749 769 727 805 b 573 916 665 870 623 897 b 412 944 523 935 470 944 b 257 916 356 944 304 935 b 135 836 210 898 169 871 b 45 600 75 773 45 695 b 60 486 45 559 50 522 b 118 347 70 451 90 405 l 403 347 b 323 497 363 414 336 464 b 302 600 309 535 302 569 b 333 694 302 638 312 670 b 415 731 354 719 382 731 b 486 706 442 731 466 723 b 519 661 500 694 511 679 b 531 602 527 642 531 623 b 516 528 531 580 526 555 b 469 428 507 501 491 468 z "}," ":{"ha":347,"x_min":0,"x_max":0,"o":""},"!":{"ha":422,"x_min":0,"x_max":0,"o":"m 325 926 l 111 926 l 111 352 l 304 352 z m 315 220 l 97 220 l 97 0 l 315 0 z "},"\"":{"ha":614,"x_min":0,"x_max":0,"o":"m 242 557 l 275 926 l 46 926 l 79 557 z m 534 557 l 567 926 l 338 926 l 371 557 z "},"#":{"ha":833,"x_min":0,"x_max":0,"o":"m 781 395 l 653 395 l 675 532 l 797 532 l 822 687 l 699 687 l 737 926 l 557 926 l 520 687 l 387 687 l 424 926 l 246 926 l 208 687 l 82 687 l 57 532 l 184 532 l 163 395 l 36 395 l 11 239 l 138 239 l 100 0 l 277 0 l 315 239 l 449 239 l 411 0 l 591 0 l 629 239 l 755 239 z m 495 532 l 474 395 l 340 395 l 361 532 z "},"$":{"ha":835,"x_min":0,"x_max":0,"o":"m 113 223 l 113 3 l 305 3 l 305 -38 l 530 -38 l 530 14 b 623 52 569 26 600 39 b 684 106 645 65 665 83 b 748 290 727 158 748 219 b 697 452 748 350 731 404 b 594 539 670 490 636 519 b 452 570 552 560 505 570 l 87 570 b 108 500 94 540 101 517 b 193 397 124 460 152 426 b 355 347 238 364 293 347 l 414 346 b 466 330 436 346 453 341 b 486 288 480 319 486 305 b 464 240 486 267 479 251 b 401 223 450 229 429 223 z m 693 926 l 538 926 l 538 963 l 313 963 l 313 926 b 222 894 275 916 244 906 b 159 846 200 882 179 866 b 117 790 141 828 127 809 b 87 706 107 770 97 742 l 693 706 z "},"%":{"ha":1278,"x_min":0,"x_max":0,"o":"m 260 937 b 83 862 185 937 126 912 b 18 656 39 812 18 743 b 83 453 18 571 39 503 b 259 378 126 403 185 378 b 420 436 325 378 378 397 b 501 655 474 485 501 558 b 422 873 501 749 475 822 b 260 937 378 916 325 937 z m 261 812 b 311 773 283 812 300 799 b 328 653 322 747 328 707 b 311 539 328 601 322 563 b 260 503 300 515 283 503 b 208 540 237 503 220 515 b 191 657 197 565 191 604 b 208 774 191 710 197 750 b 261 812 220 799 237 812 z m 693 926 l 422 0 l 595 0 l 865 926 z m 1020 548 b 843 473 945 548 886 523 b 778 268 799 423 778 355 b 843 64 778 182 800 115 b 1019 -11 886 14 945 -11 b 1180 47 1084 -11 1138 9 b 1260 267 1233 96 1260 169 b 1181 485 1260 361 1234 433 b 1020 548 1138 527 1084 548 z m 1021 423 b 1070 384 1043 423 1059 410 b 1086 264 1081 358 1086 318 b 1070 150 1086 212 1081 174 b 1020 114 1060 126 1043 114 b 968 152 996 114 979 126 b 951 269 957 177 951 216 b 968 386 951 322 957 361 b 1021 423 979 411 997 423 z "},"&":{"ha":655,"x_min":0,"x_max":0,"o":"m 594 347 l 432 602 b 409 639 420 621 412 633 b 405 660 406 645 405 652 b 419 690 405 672 410 682 b 468 703 429 699 445 703 l 576 703 l 576 926 l 409 926 b 306 913 368 926 334 922 b 235 873 279 905 255 892 b 188 806 215 855 199 832 b 171 725 177 780 171 753 b 203 612 171 686 182 649 b 260 545 215 594 234 571 b 148 517 212 538 174 529 b 75 461 121 505 97 486 b 9 272 31 412 9 349 b 83 81 9 192 34 129 b 192 20 112 54 148 33 b 351 0 235 7 288 0 l 627 0 l 627 220 l 338 220 b 271 233 306 220 283 224 b 250 280 257 244 250 260 b 267 325 250 298 256 313 b 341 347 281 340 305 347 z "},"'":{"ha":321,"x_min":0,"x_max":0,"o":"m 242 557 l 275 926 l 46 926 l 79 557 z "},"(":{"ha":393,"x_min":0,"x_max":0,"o":"m 375 1028 b 288 1009 338 1023 309 1016 b 161 924 240 993 198 964 b 97 823 135 895 114 861 b 56 682 80 784 67 737 b 37 454 44 615 37 539 b 56 225 37 368 44 292 b 97 85 67 170 80 123 b 161 -16 114 46 135 13 b 288 -102 198 -57 240 -85 b 375 -120 309 -109 338 -115 l 375 81 b 324 111 352 90 335 100 b 294 157 312 121 302 137 b 269 265 282 183 274 219 b 262 454 264 311 262 374 b 269 643 262 534 264 597 b 294 751 274 688 282 725 b 324 797 302 771 312 786 b 375 826 335 808 352 817 z "},")":{"ha":393,"x_min":0,"x_max":0,"o":"m 18 -120 b 105 -102 56 -115 85 -109 b 232 -16 153 -85 195 -57 b 296 85 258 13 280 46 b 337 225 313 123 327 170 b 356 454 350 292 356 368 b 337 682 356 540 350 616 b 296 823 327 737 313 784 b 232 924 280 861 258 895 b 105 1009 195 964 153 993 b 18 1028 85 1016 56 1023 l 18 826 b 70 797 41 817 58 808 b 100 751 81 786 91 771 b 124 643 111 725 119 689 b 132 454 129 597 132 534 b 124 264 132 374 129 311 b 100 157 119 218 111 182 b 70 111 91 137 81 121 b 18 81 58 100 41 90 z "},"*":{"ha":675,"x_min":0,"x_max":0,"o":"m 420 926 l 264 926 l 264 760 l 107 813 l 54 663 l 213 612 l 106 477 l 239 383 l 342 520 l 440 383 l 570 477 l 469 612 l 621 663 l 573 813 l 420 760 z "},"+":{"ha":833,"x_min":0,"x_max":0,"o":"m 105 572 l 105 352 l 296 352 l 296 150 l 537 150 l 537 352 l 728 352 l 728 572 l 537 572 l 537 773 l 296 773 l 296 572 z "},",":{"ha":412,"x_min":0,"x_max":0,"o":"m 315 149 l 97 149 l 97 -176 l 204 -176 z "},"-":{"ha":547,"x_min":0,"x_max":0,"o":"m 547 523 l 0 523 l 0 303 l 547 303 z "},".":{"ha":412,"x_min":0,"x_max":0,"o":"m 315 220 l 97 220 l 97 0 l 315 0 z "},"/":{"ha":454,"x_min":0,"x_max":0,"o":"m 231 1009 l 14 -102 l 223 -102 l 440 1009 z "},":":{"ha":412,"x_min":0,"x_max":0,"o":"m 315 220 l 97 220 l 97 0 l 315 0 z m 315 561 l 97 561 l 97 341 l 315 341 z "},";":{"ha":412,"x_min":0,"x_max":0,"o":"m 315 149 l 97 149 l 97 -176 l 204 -176 z m 315 561 l 97 561 l 97 341 l 315 341 z "},"<":{"ha":602,"x_min":0,"x_max":0,"o":"m 602 882 l 0 562 l 0 376 l 602 55 l 602 275 l 235 468 l 602 661 z "},"=":{"ha":833,"x_min":0,"x_max":0,"o":"m 105 720 l 105 500 l 728 500 l 728 720 z m 105 422 l 105 203 l 728 203 l 728 422 z "},">":{"ha":602,"x_min":0,"x_max":0,"o":"m 0 55 l 602 376 l 602 562 l 1 882 l 1 663 l 367 469 l 0 276 z "},"?":{"ha":662,"x_min":0,"x_max":0,"o":"m 429 347 l 526 552 b 555 629 540 582 550 607 b 564 692 561 650 564 671 b 513 833 564 745 547 792 b 415 903 488 865 455 888 b 269 926 375 918 326 926 l 69 926 l 69 703 l 231 703 b 279 700 252 703 268 702 b 304 689 290 698 298 694 b 323 648 317 678 323 664 b 308 596 323 636 318 619 l 195 347 z m 420 220 l 202 220 l 202 0 l 420 0 z "},"@":{"ha":1017,"x_min":0,"x_max":0,"o":"m 709 663 l 564 663 b 461 650 527 663 493 659 b 380 612 428 641 401 628 b 313 529 352 591 329 563 b 288 418 296 494 288 457 b 326 304 288 372 301 334 b 376 263 339 288 356 275 b 440 237 397 251 418 242 b 602 219 490 225 544 219 b 753 234 660 219 710 224 b 864 281 795 244 832 260 b 964 392 907 310 940 347 b 1000 539 988 437 1000 486 b 969 689 1000 590 990 640 b 882 819 948 738 919 782 b 726 917 839 862 787 894 b 528 951 666 939 600 951 b 315 906 453 951 383 936 b 143 782 248 877 191 835 b 51 629 103 737 73 686 b 18 455 29 572 18 514 b 51 280 18 395 29 337 b 144 130 73 224 104 174 b 538 -25 239 27 370 -25 b 689 -14 590 -25 640 -21 b 823 18 738 -6 782 4 l 790 143 b 541 100 709 114 625 100 b 370 128 474 100 417 109 b 249 218 323 147 283 177 b 188 327 223 250 202 286 b 166 453 173 368 166 410 b 190 585 166 498 174 542 b 256 699 205 627 227 665 b 382 793 292 740 334 772 b 541 826 431 815 484 826 b 681 801 591 826 637 818 b 789 732 724 785 760 762 b 866 528 840 679 866 611 b 853 441 866 496 862 467 b 817 376 845 414 833 392 b 764 339 803 360 785 348 b 695 326 742 330 719 326 l 650 326 l 680 493 l 558 493 l 529 326 b 443 351 491 326 463 334 b 413 422 423 367 413 391 b 426 478 413 441 417 459 b 460 526 435 498 446 513 b 505 549 473 536 487 544 b 570 557 522 554 543 557 l 691 557 z "},"A":{"ha":833,"x_min":0,"x_max":0,"o":"m 155 570 l -50 0 l 198 0 l 402 570 z m 288 926 l 614 0 l 884 0 l 557 926 z m 288 926 z m 553 925 z m 288 926 z "},"B":{"ha":758,"x_min":0,"x_max":0,"o":"m 56 926 l 56 706 l 372 706 b 436 690 401 706 422 701 b 458 643 451 680 458 664 b 442 598 458 625 453 610 b 411 580 435 590 425 583 b 357 574 398 576 380 574 l 56 574 l 56 355 l 357 355 b 428 336 392 355 416 349 b 446 290 440 324 446 309 b 427 239 446 270 439 253 b 357 220 414 226 391 220 l 56 220 l 56 0 l 395 0 b 505 5 437 0 474 2 b 591 28 535 7 564 15 b 661 77 618 40 642 57 b 712 158 683 99 700 126 b 730 257 724 190 730 223 b 677 410 730 319 713 371 b 641 443 666 424 654 435 b 590 468 628 451 611 459 b 652 509 617 482 637 496 b 690 557 667 522 679 538 b 720 680 710 592 720 633 b 698 788 720 719 712 754 b 637 869 683 821 663 848 b 498 921 599 899 552 916 b 361 926 462 924 417 926 z "},"C":{"ha":686,"x_min":0,"x_max":0,"o":"m 658 926 l 543 926 b 346 901 469 926 403 917 b 223 839 302 888 262 867 b 123 736 185 810 151 776 b 60 605 96 696 75 653 b 37 460 45 556 37 508 b 59 318 37 412 45 365 b 121 190 73 271 94 229 b 290 47 166 126 222 78 b 533 0 358 16 439 0 l 658 0 l 658 220 l 575 220 b 442 240 520 220 476 227 b 352 310 408 254 378 277 b 299 461 317 354 299 404 b 354 620 299 522 317 575 b 440 686 378 650 407 672 b 564 706 473 699 515 706 l 658 706 z "},"D":{"ha":887,"x_min":0,"x_max":0,"o":"m 56 926 l 56 706 l 307 706 b 432 691 359 706 400 701 b 515 639 463 681 491 663 b 568 558 538 617 555 590 b 588 463 581 526 588 495 b 569 368 588 431 582 399 b 516 288 556 336 538 310 b 429 235 492 264 463 246 b 308 218 395 223 355 218 l 308 570 l 56 570 l 56 0 l 349 0 b 555 30 428 0 497 10 b 664 89 592 42 629 62 b 758 184 700 116 731 148 b 850 460 819 266 850 358 b 804 666 850 533 834 601 b 677 829 773 731 731 785 b 537 902 636 861 590 886 b 359 926 485 918 425 926 z "},"E":{"ha":734,"x_min":0,"x_max":0,"o":"m 679 570 l 56 570 l 56 0 l 679 0 l 679 220 l 308 220 l 308 350 l 679 350 z m 679 926 l 56 926 l 56 706 l 679 706 z "},"F":{"ha":709,"x_min":0,"x_max":0,"o":"m 681 570 l 56 570 l 56 0 l 308 0 l 308 350 l 681 350 z m 681 926 l 56 926 l 56 706 l 681 706 z "},"G":{"ha":832,"x_min":0,"x_max":0,"o":"m 832 567 l 832 58 z m 832 347 l 776 347 z m 832 347 l 832 567 z m 776 926 l 583 926 b 349 899 491 926 413 917 b 240 845 312 888 276 870 b 143 758 204 821 172 791 b 64 618 109 716 82 669 b 37 458 46 567 37 513 b 74 269 37 392 49 329 b 180 113 99 208 135 156 b 334 15 225 70 276 38 b 521 -18 392 -7 454 -18 b 718 0 617 -18 682 -12 b 832 58 763 16 801 35 l 832 347 b 770 277 813 320 792 297 b 711 231 748 257 728 242 b 557 194 672 206 621 194 b 393 250 494 194 439 213 b 323 339 363 274 340 303 b 298 455 307 375 298 414 b 314 548 298 487 304 518 b 358 626 324 577 339 603 b 444 687 382 654 410 674 b 569 706 477 700 519 706 l 776 706 z m 832 567 l 496 567 l 496 347 l 832 347 z "},"H":{"ha":632,"x_min":0,"x_max":0,"o":"m 0 924 l 0 0 l 252 0 l 252 347 l 378 347 l 378 0 l 632 0 l 632 924 l 378 924 l 378 567 l 252 567 l 252 924 z "},"I":{"ha":363,"x_min":0,"x_max":0,"o":"m 308 570 l 56 570 l 56 0 l 308 0 z m 308 926 l 56 926 l 56 706 l 308 706 z "},"J":{"ha":496,"x_min":0,"x_max":0,"o":"m 440 570 l 188 570 l 188 333 b 183 277 188 309 186 290 b 165 244 179 264 173 253 b 101 222 150 230 129 222 l -12 222 l -12 0 l 168 0 b 353 62 244 0 306 21 b 404 125 373 80 390 101 b 430 197 417 149 426 173 b 440 355 437 237 440 289 z m 440 926 l 188 926 l 188 706 l 440 706 z "},"K":{"ha":633,"x_min":0,"x_max":0,"o":"m 0 0 l 252 0 l 252 289 l 378 0 l 633 0 l 443 492 l 633 924 l 378 924 l 251 662 l 252 924 l 0 924 z "},"L":{"ha":616,"x_min":0,"x_max":0,"o":"m 308 926 l 56 926 l 56 0 l 625 0 l 625 220 l 308 220 z "},"M":{"ha":1120,"x_min":0,"x_max":0,"o":"m 56 926 l 56 0 l 308 0 l 308 706 l 703 706 b 756 701 725 706 742 704 b 789 684 769 697 780 692 b 807 652 798 675 804 664 b 812 595 811 639 812 620 l 812 0 l 1065 0 l 1065 605 b 1051 742 1065 661 1060 706 b 1006 833 1042 777 1027 808 b 893 909 974 874 936 899 b 712 926 849 920 788 926 z m 677 570 l 444 570 l 444 0 l 677 0 z "},"N":{"ha":840,"x_min":0,"x_max":0,"o":"m 56 926 l 56 0 l 308 0 l 308 706 l 430 706 b 515 680 473 706 501 697 b 532 611 527 666 532 643 l 532 0 l 785 0 l 785 623 b 768 755 785 675 779 719 b 716 845 757 791 740 821 b 610 909 685 877 650 898 b 457 926 566 920 515 926 z "},"O":{"ha":1027,"x_min":0,"x_max":0,"o":"m 512 944 b 192 825 388 944 281 904 b 78 664 143 781 105 727 b 37 459 51 600 37 532 b 151 141 37 335 75 229 b 312 22 196 89 250 49 b 520 -18 375 -5 444 -18 b 726 23 596 -18 665 -5 b 884 146 787 51 840 92 b 963 290 918 188 944 236 b 990 458 981 343 990 400 b 945 684 990 543 975 618 b 812 848 915 750 871 804 b 672 919 771 878 725 902 b 512 944 620 936 567 944 z m 513 731 b 670 659 579 731 632 707 b 728 463 709 611 728 545 b 672 266 728 379 709 313 b 515 195 634 218 582 195 b 370 251 454 195 406 213 b 317 342 347 275 330 305 b 299 465 305 379 299 420 b 356 660 299 548 318 613 b 513 731 393 707 446 731 z "},"P":{"ha":744,"x_min":0,"x_max":0,"o":"m 56 926 l 56 706 l 344 706 b 429 690 384 706 412 701 b 454 639 446 680 454 663 b 428 585 454 616 446 598 b 397 573 420 579 410 575 b 342 570 384 571 365 570 l 56 570 l 56 0 l 308 0 l 308 350 l 389 350 b 535 370 449 350 498 356 b 637 437 573 383 607 405 b 696 528 663 463 682 494 b 716 636 709 563 716 599 b 695 746 716 674 709 710 b 637 839 681 782 662 813 b 530 906 607 871 571 893 b 369 926 490 919 436 926 z "},"Q":{"ha":963,"x_min":0,"x_max":0,"o":"m 512 231 l 801 231 b 878 328 837 269 862 301 b 935 526 916 390 935 456 b 909 663 935 572 927 618 b 837 787 892 709 868 750 b 680 904 794 838 742 877 b 477 944 618 931 550 944 b 279 906 404 944 339 931 b 128 795 220 880 169 843 b 54 666 96 757 71 714 b 28 519 37 619 28 569 b 43 400 28 474 33 435 b 195 165 65 323 116 245 l 356 0 l 699 0 l 401 311 b 314 428 363 351 334 390 b 285 536 295 466 285 502 b 299 607 285 560 290 584 b 340 670 309 631 322 651 b 479 731 378 711 424 731 b 617 673 534 731 580 712 b 673 529 655 634 673 586 b 662 455 673 504 670 480 b 625 376 654 431 642 405 b 512 231 605 342 567 294 z "},"R":{"ha":718,"x_min":0,"x_max":0,"o":"m 28 926 l 28 706 l 338 706 b 408 689 371 706 394 700 b 428 638 421 676 428 659 b 412 593 428 621 423 606 b 384 575 406 585 396 579 b 328 570 371 571 353 570 l 28 570 l 28 350 l 244 350 b 325 341 278 350 304 347 b 371 314 345 336 361 327 b 396 219 388 295 396 263 l 396 0 l 648 0 l 648 246 b 614 382 648 303 637 348 b 569 424 601 400 586 414 b 496 449 552 434 528 442 b 588 480 535 458 566 468 b 645 532 610 492 629 510 b 690 679 675 571 690 621 b 675 766 690 709 685 738 b 635 838 665 793 652 817 b 572 889 618 858 597 875 b 494 916 547 903 521 911 b 347 926 452 922 403 926 z "},"S":{"ha":646,"x_min":0,"x_max":0,"o":"m 326 926 l 65 926 b 56 838 59 889 56 860 b 77 741 56 809 63 776 b 118 670 86 719 99 696 b 197 572 136 645 162 612 b 337 402 271 487 318 431 b 366 320 356 374 366 347 b 340 256 366 297 357 276 b 237 220 320 232 285 220 l 9 220 l 9 0 l 266 0 b 553 110 395 0 490 37 b 608 206 576 137 595 169 b 627 318 621 242 627 280 b 616 405 627 349 624 378 b 579 492 609 431 596 460 b 523 575 565 518 546 546 b 397 723 499 605 458 654 b 335 805 368 756 347 784 b 317 867 323 826 317 847 b 326 926 317 881 320 900 z "},"T":{"ha":663,"x_min":0,"x_max":0,"o":"m 227 627 l 226 0 l 444 0 l 446 627 z m 663 925 l 0 922 l 0 703 l 663 705 z "},"U":{"ha":841,"x_min":0,"x_max":0,"o":"m 785 926 l 533 926 l 533 220 l 416 220 b 364 224 394 220 377 221 b 334 238 352 227 341 231 b 313 272 324 247 317 258 b 308 337 310 285 308 307 l 308 926 l 56 926 l 56 308 b 84 136 56 232 65 175 b 137 63 97 108 115 83 b 210 19 160 42 184 28 b 351 0 248 6 296 0 l 785 0 z "},"V":{"ha":836,"x_min":0,"x_max":0,"o":"m 854 922 l 585 926 l 459 493 b 412 267 444 442 429 367 b 366 502 393 380 378 458 l 250 926 l -18 926 l 271 0 l 547 0 z "},"W":{"ha":1109,"x_min":0,"x_max":0,"o":"m 1128 926 l 865 926 l 746 548 l 614 939 l 455 669 l 746 -15 z m 257 926 l -18 926 l 385 -15 l 536 241 z "},"X":{"ha":821,"x_min":0,"x_max":0,"o":"m 793 926 l 765 926 b 723 925 750 926 736 925 b 610 905 684 924 647 917 b 514 857 574 893 542 877 b 457 804 491 841 473 823 b 409 724 442 785 426 758 b 369 791 394 753 380 776 b 85 926 306 878 211 923 l 28 926 l 28 703 b 144 679 77 699 116 691 b 220 625 172 668 197 649 b 267 548 240 603 255 577 b 283 458 278 519 283 489 b 236 313 283 404 268 356 b 169 251 217 288 195 267 b 86 221 143 235 115 225 b 28 218 68 219 49 218 l 28 0 b 100 1 58 0 82 0 b 220 23 141 3 181 11 b 319 75 259 36 292 54 b 367 122 338 90 354 105 b 409 193 380 139 394 163 b 489 85 435 146 462 110 b 589 25 516 60 550 40 b 755 0 634 8 689 0 l 793 0 l 793 218 b 683 237 751 218 715 224 b 599 295 651 249 623 269 b 552 371 579 317 563 343 b 536 460 541 400 536 430 b 558 560 536 494 543 528 b 618 643 572 593 593 620 b 691 687 642 663 666 678 b 793 703 717 695 751 701 z "},"Y":{"ha":791,"x_min":0,"x_max":0,"o":"m 547 924 l 302 0 l 544 0 l 785 924 z m 6 924 l 157 406 l 381 406 l 231 924 z "},"Z":{"ha":742,"x_min":0,"x_max":0,"o":"m 557 570 l 281 570 l 28 0 l 707 0 l 707 220 l 402 220 z m 713 926 l 56 926 l 56 706 l 616 706 z "},"[":{"ha":405,"x_min":0,"x_max":0,"o":"m 267 93 l 267 814 l 377 814 l 377 1009 l 56 1009 l 56 -102 l 377 -102 l 377 93 z "},"\\":{"ha":454,"x_min":0,"x_max":0,"o":"m 225 1009 l 16 1009 l 233 -102 l 442 -102 z "},"]":{"ha":411,"x_min":0,"x_max":0,"o":"m 135 814 l 135 93 l 18 93 l 18 -102 l 346 -102 l 346 1009 l 18 1009 l 18 814 z "},"^":{"ha":659,"x_min":0,"x_max":0,"o":"m 196 482 l 330 781 l 463 482 l 659 482 l 453 932 l 206 932 l 0 482 z "},"_":{"ha":694,"x_min":0,"x_max":0,"o":"m 0 -78 l 0 -208 l 694 -208 l 694 -78 z "},"`":{"ha":694,"x_min":0,"x_max":0,"o":"m 166 1185 l 275 991 l 454 991 l 381 1185 z "},"{":{"ha":425,"x_min":0,"x_max":0,"o":"m 207 454 b 243 478 223 462 235 470 b 266 509 252 486 259 496 b 290 629 282 538 290 578 l 290 723 l 290 738 b 300 783 290 760 293 775 b 334 803 308 793 319 799 b 402 809 349 807 372 809 l 402 1009 l 275 1009 b 197 998 245 1009 218 1005 b 140 964 176 991 157 980 b 93 810 109 934 93 883 l 93 655 b 72 577 93 620 86 594 b 18 549 59 562 41 552 l 18 359 b 72 330 41 355 59 346 b 93 252 86 314 93 288 l 93 97 b 140 -57 93 25 109 -27 b 197 -91 157 -72 176 -84 b 275 -102 218 -98 245 -102 l 402 -102 l 402 98 b 334 104 372 98 349 100 b 300 125 319 108 308 115 b 290 170 293 132 290 147 l 290 185 l 290 279 b 266 399 290 329 282 369 b 243 429 259 411 252 422 b 207 454 235 437 223 445 z "},"|":{"ha":224,"x_min":0,"x_max":0,"o":"m 0 926 l 0 -231 l 224 -231 l 224 926 z "},"}":{"ha":523,"x_min":0,"x_max":0,"o":"m 258 454 b 222 429 242 445 230 437 b 199 399 214 422 206 412 b 176 279 184 370 176 330 l 176 185 l 176 168 b 169 120 176 147 173 131 b 146 97 164 110 157 102 b 67 88 134 91 108 88 l 46 88 l 46 -102 l 218 -102 b 353 -57 276 -102 321 -87 b 400 98 384 -26 400 25 l 400 253 b 422 330 400 288 407 314 b 476 359 435 346 453 355 l 476 548 b 422 577 453 552 435 562 b 400 654 407 594 400 620 l 400 810 b 353 964 400 882 384 934 b 296 998 336 980 317 991 b 218 1009 275 1005 248 1009 l 46 1009 l 46 819 l 67 819 b 146 810 108 819 134 816 b 169 787 157 805 164 798 b 176 739 173 776 176 760 l 176 722 l 176 628 b 199 508 176 578 184 538 b 222 478 206 496 214 486 b 258 454 230 470 242 462 z "},"~":{"ha":672,"x_min":0,"x_max":0,"o":"m 108 761 b 153 826 124 792 139 813 b 201 846 167 839 183 846 b 300 815 221 846 254 836 l 359 789 b 454 767 394 774 425 767 b 584 815 505 767 549 783 b 630 870 602 831 617 850 b 672 959 643 891 657 921 l 565 1049 b 519 985 549 1019 534 998 b 469 966 504 973 487 966 b 437 971 458 966 447 968 b 366 1000 426 975 403 984 b 270 1035 325 1016 294 1028 b 213 1045 247 1042 228 1045 b 92 998 166 1045 126 1029 b 0 851 57 967 27 918 z "}," ":{"ha":347,"x_min":0,"x_max":0,"o":""},"¡":{"ha":422,"x_min":0,"x_max":0,"o":"m 111 0 l 325 0 l 325 574 l 131 574 z m 121 706 l 339 706 l 339 926 l 121 926 z "},"¢":{"ha":833,"x_min":0,"x_max":0,"o":"m 671 338 l 583 338 b 487 352 543 338 511 343 b 424 401 463 362 441 378 b 393 490 403 427 393 457 b 424 578 393 522 403 551 b 487 627 441 601 463 617 b 583 642 511 637 543 642 l 671 642 l 671 850 l 568 850 l 568 892 l 350 892 l 350 806 b 273 755 318 789 293 772 b 216 691 253 739 234 717 b 152 490 173 630 152 563 b 216 288 152 416 173 349 b 273 224 234 262 253 241 b 350 174 293 207 318 190 l 350 88 l 568 88 l 568 130 l 671 130 z "},"£":{"ha":833,"x_min":0,"x_max":0,"o":"m 733 926 l 488 926 b 341 911 427 926 378 921 b 246 861 305 901 273 884 b 188 776 221 839 202 811 b 160 644 174 742 165 698 l 132 350 l 643 350 l 643 570 l 409 570 b 416 642 411 603 413 627 b 433 678 420 657 425 669 b 463 700 441 689 451 696 b 515 706 475 704 492 706 l 733 706 z m 733 220 l 120 220 l 100 0 l 733 0 z "},"¤":{"ha":833,"x_min":0,"x_max":0,"o":"m 73 641 l 157 557 b 153 541 156 550 154 544 b 142 498 147 521 144 507 b 140 463 140 489 140 477 b 142 427 140 449 140 437 b 153 385 144 417 147 403 b 157 370 154 381 156 376 l 73 286 l 239 120 l 323 204 b 416 186 358 192 389 186 b 510 204 443 186 474 192 l 594 120 l 760 286 l 675 370 l 680 385 b 691 426 686 402 689 416 b 694 463 693 436 694 448 b 691 499 694 477 693 489 b 680 541 689 509 686 523 b 675 557 679 544 678 550 l 760 641 l 594 806 l 510 722 b 494 726 503 724 498 725 b 451 738 475 732 461 736 b 416 740 442 739 430 740 b 338 726 395 740 369 735 l 323 722 l 239 806 z m 416 566 b 490 536 445 566 470 556 b 520 463 510 516 520 492 b 490 390 520 434 510 410 b 416 359 470 369 445 359 b 344 390 388 359 364 370 b 313 463 323 410 313 435 b 343 536 313 492 323 516 b 416 566 364 556 388 566 z "},"¥":{"ha":833,"x_min":0,"x_max":0,"o":"m 196 570 l 79 570 l 79 350 l 750 350 l 750 570 l 635 570 l 796 926 l 541 926 l 416 570 l 293 926 l 38 926 z m 539 220 l 287 220 l 287 0 l 539 0 z "},"¦":{"ha":224,"x_min":0,"x_max":0,"o":"m 0 926 l 0 434 l 224 434 l 224 926 z m 0 213 l 0 -231 l 224 -231 l 224 213 z "},"§":{"ha":833,"x_min":0,"x_max":0,"o":"m 178 653 b 199 618 184 639 192 627 b 121 449 147 569 121 512 b 140 364 121 420 127 392 b 193 292 153 336 170 312 b 243 260 205 281 222 270 b 338 224 265 250 297 238 b 403 195 370 213 392 203 b 420 164 414 187 420 177 b 410 135 420 154 417 144 b 394 121 406 128 400 124 b 364 118 388 119 378 118 l 165 118 l 165 -102 l 391 -102 b 625 -7 496 -102 574 -70 b 682 159 663 39 682 94 b 638 302 682 212 667 259 b 682 353 657 318 672 335 b 713 470 703 389 713 428 b 671 600 713 518 699 562 b 615 653 658 618 639 636 z m 406 512 b 438 499 418 512 429 508 b 451 469 447 491 451 481 b 438 438 451 457 447 447 b 406 425 429 430 418 425 b 375 438 394 425 384 430 b 361 469 366 447 361 457 b 375 499 361 481 366 491 b 406 512 384 508 394 512 z m 669 789 l 669 1009 l 435 1009 b 342 996 404 1009 373 1005 b 258 959 311 987 283 975 b 192 895 229 940 206 918 b 157 789 177 871 166 836 z "},"¨":{"ha":694,"x_min":0,"x_max":0,"o":"m 550 1184 l 370 1184 l 370 989 l 550 989 z m 324 1184 l 144 1184 l 144 989 l 324 989 z "},"©":{"ha":1059,"x_min":0,"x_max":0,"o":"m 686 722 l 615 722 b 468 697 556 722 507 714 b 368 616 428 680 395 653 b 317 461 334 570 317 519 b 367 309 317 405 334 354 b 467 230 394 274 427 247 b 609 203 506 212 554 203 l 686 203 l 686 333 l 633 333 b 559 344 603 333 578 337 b 509 381 540 351 523 363 b 479 462 489 405 479 432 b 510 547 479 494 490 523 b 558 582 524 563 539 575 b 627 593 576 589 599 593 l 686 593 z m 530 947 b 329 902 460 947 393 932 b 162 778 264 873 209 831 b 77 632 125 736 97 687 b 46 463 56 576 46 520 b 76 295 46 405 56 349 b 163 148 96 241 125 192 b 328 23 208 94 263 53 b 530 -21 392 -6 460 -21 b 697 9 587 -21 643 -11 b 844 95 751 29 800 58 b 968 260 897 141 938 196 b 1013 463 998 325 1013 392 b 982 631 1013 521 1002 576 b 897 777 962 685 934 734 b 732 902 851 831 796 873 b 530 947 668 932 601 947 z m 530 857 b 780 762 624 857 707 825 b 880 628 823 725 857 681 b 916 463 904 576 916 521 b 880 298 916 405 904 350 b 781 163 857 246 824 201 b 663 94 745 133 706 110 b 530 69 620 77 576 69 b 397 94 485 69 440 77 b 279 163 353 110 314 133 b 179 298 236 201 202 245 b 143 463 155 350 143 405 b 179 629 143 521 155 576 b 279 763 202 681 236 726 b 530 857 352 825 435 857 z "},"ª":{"ha":555,"x_min":0,"x_max":0,"o":"m 498 481 l 57 481 l 57 391 l 498 391 z m 428 926 l 298 926 b 164 888 243 926 198 913 b 110 823 141 871 123 849 b 91 740 97 797 91 769 b 130 629 91 699 104 662 b 201 573 150 604 174 585 b 302 556 229 562 262 556 l 428 556 l 428 785 l 317 785 l 317 647 b 236 674 281 647 255 656 b 207 741 217 692 207 714 b 236 809 207 767 217 790 b 270 829 246 819 257 825 b 319 836 282 833 299 836 l 428 836 z "},"«":{"ha":862,"x_min":0,"x_max":0,"o":"m 490 725 l 227 725 l 46 437 l 227 157 l 490 157 l 309 437 z m 806 725 l 543 725 l 361 437 l 543 157 l 806 157 l 624 437 z "},"¬":{"ha":602,"x_min":0,"x_max":0,"o":"m 384 0 l 602 0 l 602 406 l 0 406 l 0 212 l 384 212 z "},"®":{"ha":1059,"x_min":0,"x_max":0,"o":"m 333 722 l 333 593 l 518 593 b 553 585 534 593 546 590 b 564 559 561 580 564 571 b 557 538 564 551 562 544 b 542 529 553 534 548 531 b 512 526 535 527 525 526 l 333 526 l 333 397 l 463 397 b 529 382 495 397 517 392 b 547 330 541 373 547 355 l 547 203 l 702 203 l 702 345 b 629 456 702 405 678 442 b 701 500 661 464 684 479 b 726 583 718 522 726 550 b 693 673 726 618 715 648 b 630 711 676 691 655 704 b 523 722 605 719 569 722 z m 530 947 b 329 902 460 947 393 932 b 162 778 264 873 209 831 b 77 632 125 736 97 687 b 46 463 56 576 46 520 b 76 295 46 405 56 349 b 163 148 96 241 125 192 b 328 23 208 94 263 53 b 530 -21 392 -6 460 -21 b 697 9 587 -21 643 -11 b 844 95 751 29 800 58 b 968 260 897 141 938 196 b 1013 463 998 325 1013 392 b 982 631 1013 521 1002 576 b 897 777 962 685 934 734 b 732 902 851 831 796 873 b 530 947 668 932 601 947 z m 530 857 b 780 762 624 857 707 825 b 880 628 823 725 857 681 b 916 463 904 576 916 521 b 880 298 916 405 904 350 b 781 163 857 246 824 201 b 663 94 745 133 706 110 b 530 69 620 77 576 69 b 397 94 485 69 440 77 b 279 163 353 110 314 133 b 179 298 236 201 202 245 b 143 463 155 350 143 405 b 179 629 143 521 155 576 b 279 763 202 681 236 726 b 530 857 352 825 435 857 z "},"°":{"ha":517,"x_min":0,"x_max":0,"o":"m 258 926 b 170 907 227 926 198 920 b 97 852 142 894 117 876 b 59 788 81 834 68 813 b 46 715 51 764 46 740 b 97 577 46 663 63 617 b 169 523 117 554 141 535 b 258 503 197 510 227 503 b 347 523 289 503 319 510 b 419 577 375 535 399 554 b 470 715 453 617 470 663 b 419 852 470 767 453 813 b 347 907 399 876 375 894 b 258 926 319 920 289 926 z m 258 802 b 320 776 282 802 303 793 b 345 715 337 759 345 739 b 320 653 345 691 337 670 b 258 628 303 636 282 628 b 196 653 234 628 213 636 b 171 715 179 670 171 691 b 196 776 171 739 179 759 b 258 802 213 793 234 802 z "},"±":{"ha":833,"x_min":0,"x_max":0,"o":"m 105 692 l 105 472 l 296 472 l 296 271 l 537 271 l 537 472 l 728 472 l 728 692 l 537 692 l 537 894 l 296 894 l 296 692 z m 105 220 l 105 0 l 728 0 l 728 220 z "},"²":{"ha":549,"x_min":0,"x_max":0,"o":"m 67 926 l 67 787 l 249 787 b 295 778 270 787 286 784 b 309 751 304 773 309 763 b 258 715 309 727 292 715 l 191 715 b 130 706 166 715 146 712 b 90 677 114 700 100 690 b 66 606 74 659 66 635 b 67 576 66 599 67 589 l 261 576 b 367 590 305 576 341 581 b 437 636 393 598 417 614 b 483 751 468 668 483 706 b 435 869 483 797 467 837 b 365 913 415 890 392 904 b 262 926 338 921 304 926 z m 460 511 l 67 511 l 67 372 l 460 372 z "},"³":{"ha":548,"x_min":0,"x_max":0,"o":"m 210 715 l 109 576 l 248 576 b 294 569 269 576 285 574 b 309 543 304 563 309 555 b 299 519 309 534 305 526 b 285 512 295 516 291 513 b 257 511 280 511 270 511 l 66 511 l 66 372 l 276 372 b 374 387 314 372 347 377 b 441 435 400 397 423 413 b 482 548 469 466 482 504 b 425 670 482 599 463 640 b 271 715 387 700 335 715 z m 475 926 l 66 926 l 66 787 l 370 787 z "},"´":{"ha":694,"x_min":0,"x_max":0,"o":"m 528 1185 l 313 1185 l 240 991 l 420 991 z "},"µ":{"ha":616,"x_min":0,"x_max":0,"o":"m 0 -237 l 180 -237 l 180 68 b 225 12 195 42 210 24 b 304 -14 248 -5 275 -14 b 389 17 337 -14 365 -3 b 414 45 399 25 407 34 b 435 89 421 55 428 70 l 435 0 l 616 0 l 616 667 l 435 667 l 435 326 b 430 260 435 300 434 279 b 412 203 426 242 420 223 b 371 156 403 184 390 168 b 310 139 353 145 333 139 b 203 199 265 139 229 159 b 185 246 194 214 188 229 b 180 321 182 262 180 288 l 180 667 l 0 667 z "},"¶":{"ha":833,"x_min":0,"x_max":0,"o":"m 307 -102 l 453 -102 l 453 838 l 556 838 l 556 -102 l 702 -102 l 702 838 l 807 838 l 807 1009 l 361 1009 b 127 962 257 1009 179 993 b 51 880 93 940 68 913 b 26 760 35 847 26 807 b 96 581 26 681 50 622 b 183 531 119 560 148 543 b 292 513 219 519 255 513 l 307 513 z "},"¸":{"ha":694,"x_min":0,"x_max":0,"o":"m 492 -64 l 277 -64 l 203 -259 l 383 -259 z "},"¹":{"ha":549,"x_min":0,"x_max":0,"o":"m 393 926 l 227 926 l 117 785 l 224 785 l 224 370 l 393 370 z "},"º":{"ha":555,"x_min":0,"x_max":0,"o":"m 498 481 l 57 481 l 57 391 l 498 391 z m 277 933 b 134 878 220 933 172 915 b 77 739 96 841 77 795 b 134 602 77 684 96 638 b 281 548 172 566 221 548 b 424 602 339 548 387 566 b 479 743 460 638 479 685 b 431 871 479 794 463 837 b 363 917 413 891 390 906 b 277 933 336 928 307 933 z m 277 843 b 340 815 304 843 324 834 b 363 741 355 797 363 772 b 340 665 363 708 355 683 b 279 638 326 647 305 638 b 215 666 252 638 230 647 b 193 741 200 684 193 709 b 215 816 193 773 200 798 b 277 843 230 834 251 843 z "},"»":{"ha":862,"x_min":0,"x_max":0,"o":"m 370 725 l 552 437 l 370 157 l 633 157 l 815 437 l 633 725 z m 56 725 l 237 437 l 56 157 l 319 157 l 500 437 l 319 725 z "},"¼":{"ha":1337,"x_min":0,"x_max":0,"o":"m 393 926 l 227 926 l 117 785 l 224 785 l 224 370 l 393 370 z m 722 926 l 452 0 l 624 0 l 895 926 z m 1204 555 l 1021 555 l 835 205 l 1283 205 l 1283 344 l 1094 344 z m 1234 139 l 1017 139 l 1017 0 l 1234 0 z "},"½":{"ha":1338,"x_min":0,"x_max":0,"o":"m 393 926 l 227 926 l 117 785 l 224 785 l 224 370 l 393 370 z m 722 926 l 452 0 l 624 0 l 895 926 z m 856 555 l 856 416 l 1038 416 b 1084 408 1059 416 1074 414 b 1098 380 1093 402 1098 393 b 1046 344 1098 356 1081 344 l 980 344 b 919 335 955 344 935 341 b 878 305 903 329 889 319 b 855 234 863 287 855 263 b 856 205 855 227 855 217 l 1050 205 b 1156 218 1094 205 1129 209 b 1226 264 1182 227 1205 242 b 1272 380 1256 297 1272 335 b 1223 499 1272 427 1256 467 b 1154 543 1204 519 1180 534 b 1050 555 1127 551 1093 555 z m 1249 139 l 856 139 l 856 0 l 1249 0 z "},"¾":{"ha":1337,"x_min":0,"x_max":0,"o":"m 210 715 l 109 576 l 248 576 b 294 569 269 576 285 574 b 309 543 304 563 309 555 b 299 519 309 534 305 526 b 285 512 295 516 291 513 b 257 511 280 511 270 511 l 66 511 l 66 372 l 276 372 b 374 387 314 372 347 377 b 441 435 400 397 423 413 b 482 548 469 466 482 504 b 425 670 482 599 463 640 b 271 715 387 700 335 715 z m 475 926 l 66 926 l 66 787 l 370 787 z m 722 926 l 452 0 l 624 0 l 895 926 z m 1204 555 l 1021 555 l 835 205 l 1283 205 l 1283 344 l 1094 344 z m 1234 139 l 1017 139 l 1017 0 l 1234 0 z "},"¿":{"ha":662,"x_min":0,"x_max":0,"o":"m 204 578 l 108 374 b 78 297 94 344 84 318 b 69 234 72 276 69 255 b 120 92 69 181 86 134 b 219 23 146 61 179 38 b 365 0 259 8 307 0 l 564 0 l 564 222 l 403 222 b 354 225 381 222 365 223 b 329 237 344 228 335 231 b 310 278 316 248 310 261 b 326 330 310 289 315 307 l 438 578 z m 214 706 l 432 706 l 432 926 l 214 926 z "},"À":{"ha":833,"x_min":0,"x_max":0,"o":"m 563 926 l 288 926 l 539 220 l 301 220 l 400 570 l 170 570 l -18 0 l 852 0 z m 236 1185 l 345 991 l 524 991 l 451 1185 z "},"Á":{"ha":833,"x_min":0,"x_max":0,"o":"m 563 926 l 288 926 l 539 220 l 301 220 l 400 570 l 170 570 l -18 0 l 852 0 z m 598 1185 l 383 1185 l 310 991 l 490 991 z "},"Â":{"ha":833,"x_min":0,"x_max":0,"o":"m 563 926 l 288 926 l 539 220 l 301 220 l 400 570 l 170 570 l -18 0 l 852 0 z m 506 1184 l 326 1184 l 205 989 l 376 989 l 416 1066 l 463 989 l 629 989 z "},"Ã":{"ha":833,"x_min":0,"x_max":0,"o":"m 563 926 l 288 926 l 539 220 l 301 220 l 400 570 l 170 570 l -18 0 l 852 0 z m 248 1142 l 248 991 b 286 1024 262 1007 275 1018 b 327 1032 296 1029 310 1032 b 378 1022 343 1032 360 1029 l 420 1008 b 497 991 449 997 475 991 b 586 1021 530 991 559 1001 l 586 1174 b 513 1135 564 1148 540 1135 b 439 1153 498 1135 473 1141 b 381 1172 412 1163 392 1169 b 345 1176 370 1175 358 1176 b 295 1168 326 1176 309 1173 b 248 1142 281 1163 265 1154 z "},"Ä":{"ha":833,"x_min":0,"x_max":0,"o":"m 563 926 l 288 926 l 539 220 l 301 220 l 400 570 l 170 570 l -18 0 l 852 0 z m 621 1184 l 440 1184 l 440 989 l 621 989 z m 394 1184 l 214 1184 l 214 989 l 394 989 z "},"Å":{"ha":833,"x_min":0,"x_max":0,"o":"m 563 926 l 288 926 l 539 220 l 301 220 l 400 570 l 170 570 l -18 0 l 852 0 z m 417 1254 b 317 1213 378 1254 345 1240 b 276 1114 290 1186 276 1152 b 317 1014 276 1075 290 1041 b 417 972 345 986 378 972 b 517 1014 456 972 489 986 b 558 1114 544 1041 558 1075 b 517 1213 558 1152 544 1186 b 417 1254 489 1240 456 1254 z m 417 1154 b 448 1142 429 1154 440 1150 b 461 1114 457 1134 461 1125 b 448 1084 461 1102 457 1092 b 417 1072 440 1076 429 1072 b 386 1084 405 1072 394 1076 b 373 1114 377 1092 373 1102 b 386 1142 373 1124 377 1134 b 417 1154 394 1150 405 1154 z "},"Æ":{"ha":1275,"x_min":0,"x_max":0,"o":"m 331 926 l 407 706 l 1169 706 l 1169 926 z m 215 570 l 28 0 l 1169 0 l 1169 220 l 827 220 l 787 351 l 1169 351 l 1169 570 l 457 570 l 585 220 l 347 220 l 443 570 z "},"Ç":{"ha":686,"x_min":0,"x_max":0,"o":"m 658 926 l 543 926 b 346 901 469 926 403 917 b 223 839 302 888 262 867 b 123 736 185 810 151 776 b 60 605 96 696 75 653 b 37 460 45 556 37 508 b 59 318 37 412 45 365 b 121 190 73 271 94 229 b 290 47 166 126 222 78 b 533 0 358 16 439 0 l 658 0 l 658 220 l 575 220 b 442 240 520 220 476 227 b 352 310 408 254 378 277 b 299 461 317 354 299 404 b 354 620 299 522 317 575 b 440 686 378 650 407 672 b 564 706 473 699 515 706 l 658 706 z m 524 -64 l 309 -64 l 236 -259 l 415 -259 z "},"È":{"ha":734,"x_min":0,"x_max":0,"o":"m 679 570 l 56 570 l 56 0 l 679 0 l 679 220 l 308 220 l 308 350 l 679 350 z m 679 926 l 56 926 l 56 706 l 679 706 z m 186 1185 l 295 991 l 474 991 l 401 1185 z "},"É":{"ha":734,"x_min":0,"x_max":0,"o":"m 679 570 l 56 570 l 56 0 l 679 0 l 679 220 l 308 220 l 308 350 l 679 350 z m 679 926 l 56 926 l 56 706 l 679 706 z m 549 1185 l 334 1185 l 260 991 l 439 991 z "},"Ê":{"ha":734,"x_min":0,"x_max":0,"o":"m 679 570 l 56 570 l 56 0 l 679 0 l 679 220 l 308 220 l 308 350 l 679 350 z m 679 926 l 56 926 l 56 706 l 679 706 z m 456 1184 l 276 1184 l 155 989 l 326 989 l 366 1066 l 412 989 l 579 989 z "},"Ë":{"ha":734,"x_min":0,"x_max":0,"o":"m 679 570 l 56 570 l 56 0 l 679 0 l 679 220 l 308 220 l 308 350 l 679 350 z m 679 926 l 56 926 l 56 706 l 679 706 z m 570 1184 l 390 1184 l 390 989 l 570 989 z m 345 1184 l 164 1184 l 164 989 l 345 989 z "},"Ì":{"ha":363,"x_min":0,"x_max":0,"o":"m 308 570 l 56 570 l 56 0 l 308 0 z m 308 926 l 56 926 l 56 706 l 308 706 z m 2 1185 l 111 991 l 290 991 l 217 1185 z "},"Í":{"ha":366,"x_min":0,"x_max":0,"o":"m 308 570 l 56 570 l 56 0 l 308 0 z m 308 926 l 56 926 l 56 706 l 308 706 z m 364 1185 l 149 1185 l 76 991 l 256 991 z "},"Î":{"ha":366,"x_min":0,"x_max":0,"o":"m 308 570 l 56 570 l 56 0 l 308 0 z m 308 926 l 56 926 l 56 706 l 308 706 z m 272 1184 l 92 1184 l -28 989 l 142 989 l 182 1066 l 229 989 l 395 989 z "},"Ï":{"ha":366,"x_min":0,"x_max":0,"o":"m 308 570 l 56 570 l 56 0 l 308 0 z m 308 926 l 56 926 l 56 706 l 308 706 z m 368 1175 l 212 1175 l 212 1004 l 368 1004 z m 153 1175 l -2 1175 l -2 1004 l 153 1004 z "},"Ð":{"ha":907,"x_min":0,"x_max":0,"o":"m 75 926 l 75 706 l 329 706 b 453 691 380 706 421 701 b 536 640 484 681 512 664 b 590 558 559 617 577 590 b 609 463 603 527 609 495 b 590 368 609 431 603 399 b 537 289 577 337 559 311 b 450 237 513 265 484 248 b 329 220 416 225 376 220 l 75 220 l 75 0 l 370 0 b 576 29 449 0 518 10 b 686 88 614 42 650 61 b 779 182 721 114 752 146 b 871 460 840 263 871 356 b 825 666 871 533 856 601 b 699 829 795 731 753 785 b 559 902 658 861 611 886 b 381 926 506 918 447 926 z m 450 570 l 37 570 l 37 350 l 450 350 z "},"Ñ":{"ha":840,"x_min":0,"x_max":0,"o":"m 56 926 l 56 0 l 308 0 l 308 706 l 430 706 b 515 680 473 706 501 697 b 532 611 527 666 532 643 l 532 0 l 785 0 l 785 623 b 768 755 785 675 779 719 b 716 845 757 791 740 821 b 610 909 685 877 650 898 b 457 926 566 920 515 926 z m 214 1142 l 214 991 b 251 1024 227 1007 240 1018 b 292 1032 262 1029 276 1032 b 345 1022 309 1032 326 1029 l 385 1008 b 463 991 415 997 440 991 b 551 1021 495 991 525 1001 l 551 1174 b 479 1135 529 1148 505 1135 b 405 1153 463 1135 439 1141 b 347 1172 377 1163 358 1169 b 310 1176 335 1175 323 1176 b 260 1168 291 1176 275 1173 b 214 1142 246 1163 230 1154 z "},"Ò":{"ha":1027,"x_min":0,"x_max":0,"o":"m 512 944 b 192 825 388 944 281 904 b 78 664 143 781 105 727 b 37 459 51 600 37 532 b 151 141 37 335 75 229 b 312 22 196 89 250 49 b 520 -18 375 -5 444 -18 b 726 23 596 -18 665 -5 b 884 146 787 51 840 92 b 963 290 918 188 944 236 b 990 458 981 343 990 400 b 945 684 990 543 975 618 b 812 848 915 750 871 804 b 672 919 771 878 725 902 b 512 944 620 936 567 944 z m 513 731 b 670 659 579 731 632 707 b 728 463 709 611 728 545 b 672 266 728 379 709 313 b 515 195 634 218 582 195 b 370 251 454 195 406 213 b 317 342 347 275 330 305 b 299 465 305 379 299 420 b 356 660 299 548 318 613 b 513 731 393 707 446 731 z m 332 1185 l 441 991 l 621 991 l 547 1185 z "},"Ó":{"ha":1027,"x_min":0,"x_max":0,"o":"m 512 944 b 192 825 388 944 281 904 b 78 664 143 781 105 727 b 37 459 51 600 37 532 b 151 141 37 335 75 229 b 312 22 196 89 250 49 b 520 -18 375 -5 444 -18 b 726 23 596 -18 665 -5 b 884 146 787 51 840 92 b 963 290 918 188 944 236 b 990 458 981 343 990 400 b 945 684 990 543 975 618 b 812 848 915 750 871 804 b 672 919 771 878 725 902 b 512 944 620 936 567 944 z m 513 731 b 670 659 579 731 632 707 b 728 463 709 611 728 545 b 672 266 728 379 709 313 b 515 195 634 218 582 195 b 370 251 454 195 406 213 b 317 342 347 275 330 305 b 299 465 305 379 299 420 b 356 660 299 548 318 613 b 513 731 393 707 446 731 z m 694 1185 l 479 1185 l 406 991 l 585 991 z "},"Ô":{"ha":1027,"x_min":0,"x_max":0,"o":"m 512 944 b 192 825 388 944 281 904 b 78 664 143 781 105 727 b 37 459 51 600 37 532 b 151 141 37 335 75 229 b 312 22 196 89 250 49 b 520 -18 375 -5 444 -18 b 726 23 596 -18 665 -5 b 884 146 787 51 840 92 b 963 290 918 188 944 236 b 990 458 981 343 990 400 b 945 684 990 543 975 618 b 812 848 915 750 871 804 b 672 919 771 878 725 902 b 512 944 620 936 567 944 z m 513 731 b 670 659 579 731 632 707 b 728 463 709 611 728 545 b 672 266 728 379 709 313 b 515 195 634 218 582 195 b 370 251 454 195 406 213 b 317 342 347 275 330 305 b 299 465 305 379 299 420 b 356 660 299 548 318 613 b 513 731 393 707 446 731 z m 603 1184 l 422 1184 l 302 989 l 473 989 l 513 1066 l 559 989 l 726 989 z "},"Õ":{"ha":1027,"x_min":0,"x_max":0,"o":"m 512 944 b 192 825 388 944 281 904 b 78 664 143 781 105 727 b 37 459 51 600 37 532 b 151 141 37 335 75 229 b 312 22 196 89 250 49 b 520 -18 375 -5 444 -18 b 726 23 596 -18 665 -5 b 884 146 787 51 840 92 b 963 290 918 188 944 236 b 990 458 981 343 990 400 b 945 684 990 543 975 618 b 812 848 915 750 871 804 b 672 919 771 878 725 902 b 512 944 620 936 567 944 z m 513 731 b 670 659 579 731 632 707 b 728 463 709 611 728 545 b 672 266 728 379 709 313 b 515 195 634 218 582 195 b 370 251 454 195 406 213 b 317 342 347 275 330 305 b 299 465 305 379 299 420 b 356 660 299 548 318 613 b 513 731 393 707 446 731 z m 345 1142 l 345 991 b 382 1024 359 1007 371 1018 b 423 1032 393 1029 406 1032 b 475 1022 439 1032 456 1029 l 516 1008 b 593 991 545 997 571 991 b 682 1021 626 991 656 1001 l 682 1174 b 610 1135 660 1148 636 1135 b 536 1153 594 1135 569 1141 b 477 1172 508 1163 489 1169 b 441 1176 466 1175 454 1176 b 392 1168 422 1176 406 1173 b 345 1142 377 1163 362 1154 z "},"Ö":{"ha":1027,"x_min":0,"x_max":0,"o":"m 512 944 b 192 825 388 944 281 904 b 78 664 143 781 105 727 b 37 459 51 600 37 532 b 151 141 37 335 75 229 b 312 22 196 89 250 49 b 520 -18 375 -5 444 -18 b 726 23 596 -18 665 -5 b 884 146 787 51 840 92 b 963 290 918 188 944 236 b 990 458 981 343 990 400 b 945 684 990 543 975 618 b 812 848 915 750 871 804 b 672 919 771 878 725 902 b 512 944 620 936 567 944 z m 513 731 b 670 659 579 731 632 707 b 728 463 709 611 728 545 b 672 266 728 379 709 313 b 515 195 634 218 582 195 b 370 251 454 195 406 213 b 317 342 347 275 330 305 b 299 465 305 379 299 420 b 356 660 299 548 318 613 b 513 731 393 707 446 731 z m 717 1184 l 536 1184 l 536 989 l 717 989 z m 491 1184 l 311 1184 l 311 989 l 491 989 z "},"×":{"ha":833,"x_min":0,"x_max":0,"o":"m 256 786 l 92 623 l 254 462 l 92 300 l 256 137 l 417 298 l 578 137 l 742 300 l 581 462 l 742 623 l 578 786 l 417 625 z "},"Ø":{"ha":1118,"x_min":0,"x_max":0,"o":"m 811 977 l 757 901 b 653 933 718 917 683 927 b 553 943 623 940 590 943 b 390 917 496 943 441 934 b 250 840 338 899 291 874 b 123 674 196 796 153 740 b 79 458 94 607 79 535 b 111 277 79 393 90 332 b 174 162 124 243 145 205 l 114 77 l 278 -41 l 330 32 b 446 -10 377 11 416 -3 b 555 -20 477 -17 513 -20 b 763 20 632 -20 701 -7 b 922 138 824 46 877 86 b 1031 456 994 225 1031 331 b 989 671 1031 532 1017 604 b 962 725 980 692 971 710 b 920 782 953 740 939 759 l 974 857 z m 553 730 b 642 710 584 730 614 723 b 712 656 669 697 693 679 b 769 453 750 609 769 541 b 753 335 769 407 764 368 b 702 250 742 302 725 274 b 557 193 665 212 617 193 b 406 256 493 193 443 214 b 357 346 385 279 369 309 b 340 465 346 382 340 422 b 359 588 340 510 347 551 b 411 675 372 625 389 654 b 475 715 429 693 450 706 b 553 730 500 725 526 730 z "},"Ù":{"ha":841,"x_min":0,"x_max":0,"o":"m 785 926 l 533 926 l 533 220 l 416 220 b 364 224 394 220 377 221 b 334 238 352 227 341 231 b 313 272 324 247 317 258 b 308 337 310 285 308 307 l 308 926 l 56 926 l 56 308 b 84 136 56 232 65 175 b 137 63 97 108 115 83 b 210 19 160 42 184 28 b 351 0 248 6 296 0 l 785 0 z m 239 1185 l 348 991 l 528 991 l 454 1185 z "},"Ú":{"ha":841,"x_min":0,"x_max":0,"o":"m 785 926 l 533 926 l 533 220 l 416 220 b 364 224 394 220 377 221 b 334 238 352 227 341 231 b 313 272 324 247 317 258 b 308 337 310 285 308 307 l 308 926 l 56 926 l 56 308 b 84 136 56 232 65 175 b 137 63 97 108 115 83 b 210 19 160 42 184 28 b 351 0 248 6 296 0 l 785 0 z m 602 1185 l 387 1185 l 313 991 l 493 991 z "},"Û":{"ha":841,"x_min":0,"x_max":0,"o":"m 785 926 l 533 926 l 533 220 l 416 220 b 364 224 394 220 377 221 b 334 238 352 227 341 231 b 313 272 324 247 317 258 b 308 337 310 285 308 307 l 308 926 l 56 926 l 56 308 b 84 136 56 232 65 175 b 137 63 97 108 115 83 b 210 19 160 42 184 28 b 351 0 248 6 296 0 l 785 0 z m 509 1184 l 329 1184 l 209 989 l 379 989 l 420 1066 l 466 989 l 632 989 z "},"Ü":{"ha":841,"x_min":0,"x_max":0,"o":"m 785 926 l 533 926 l 533 220 l 416 220 b 364 224 394 220 377 221 b 334 238 352 227 341 231 b 313 272 324 247 317 258 b 308 337 310 285 308 307 l 308 926 l 56 926 l 56 308 b 84 136 56 232 65 175 b 137 63 97 108 115 83 b 210 19 160 42 184 28 b 351 0 248 6 296 0 l 785 0 z m 624 1184 l 444 1184 l 444 989 l 624 989 z m 397 1184 l 217 1184 l 217 989 l 397 989 z "},"Ý":{"ha":791,"x_min":0,"x_max":0,"o":"m 764 926 l 511 926 l 511 703 b 471 576 511 640 498 598 b 395 551 451 559 425 551 b 318 577 364 551 339 559 b 289 622 304 588 295 603 b 280 695 283 640 280 665 l 280 926 l 28 926 l 28 744 b 39 602 28 690 31 643 b 74 503 45 567 56 534 b 142 418 92 471 115 443 b 395 331 207 360 291 331 b 652 423 502 331 588 362 b 717 507 678 447 700 475 b 751 604 735 539 746 571 b 764 765 760 648 764 702 z m 604 220 l 180 220 l 180 0 l 604 0 z m 577 1185 l 362 1185 l 289 991 l 468 991 z "},"Þ":{"ha":744,"x_min":0,"x_max":0,"o":"m 56 926 l 56 595 l 344 595 b 429 579 384 595 412 589 b 454 526 446 568 454 551 b 428 471 454 503 446 484 b 397 459 420 466 410 462 b 342 456 384 457 365 456 l 56 456 l 56 0 l 308 0 l 308 236 l 389 236 b 535 256 449 236 498 243 b 637 323 573 269 607 291 b 696 415 663 349 682 380 b 716 524 709 449 716 486 b 695 635 716 562 709 599 b 637 728 681 670 662 701 b 530 795 607 759 571 782 b 369 814 490 808 436 814 l 308 814 l 308 926 z "},"÷":{"ha":833,"x_min":0,"x_max":0,"o":"m 416 890 b 317 847 377 890 343 876 b 281 755 293 821 281 791 b 321 660 281 718 295 687 b 416 621 348 634 379 621 b 512 660 453 621 485 634 b 551 755 538 687 551 718 b 515 847 551 791 539 821 b 471 879 503 861 488 871 b 416 890 453 887 435 890 z m 416 303 b 321 264 379 303 347 290 b 281 168 295 238 281 206 b 321 73 281 131 295 99 b 416 33 348 46 379 33 b 512 73 453 33 485 46 b 551 168 538 99 551 131 b 512 264 551 206 538 238 b 416 303 486 290 454 303 z m 105 572 l 105 352 l 728 352 l 728 572 z "},"ÿ":{"ha":791,"x_min":0,"x_max":0,"o":"m 764 926 l 511 926 l 511 703 b 471 576 511 640 498 598 b 395 551 451 559 425 551 b 318 577 364 551 339 559 b 289 622 304 588 295 603 b 280 695 283 640 280 665 l 280 926 l 28 926 l 28 744 b 39 602 28 690 31 643 b 74 503 45 567 56 534 b 142 418 92 471 115 443 b 395 331 207 360 291 331 b 652 423 502 331 588 362 b 717 507 678 447 700 475 b 751 604 735 539 746 571 b 764 765 760 648 764 702 z m 604 220 l 180 220 l 180 0 l 604 0 z m 599 1184 l 418 1184 l 418 989 l 599 989 z m 373 1184 l 193 1184 l 193 989 l 373 989 z "},"Ā":{"ha":833,"x_min":0,"x_max":0,"o":"m 563 926 l 288 926 l 539 220 l 301 220 l 400 570 l 170 570 l -18 0 l 852 0 z "},"ā":{"ha":758,"x_min":0,"x_max":0,"o":"m 56 926 l 56 706 l 372 706 b 436 690 401 706 422 701 b 458 643 451 680 458 664 b 442 598 458 625 453 610 b 411 580 435 590 425 583 b 357 574 398 576 380 574 l 56 574 l 56 355 l 357 355 b 428 336 392 355 416 349 b 446 290 440 324 446 309 b 427 239 446 270 439 253 b 357 220 414 226 391 220 l 56 220 l 56 0 l 395 0 b 505 5 437 0 474 2 b 591 28 535 7 564 15 b 661 77 618 40 642 57 b 712 158 683 99 700 126 b 730 257 724 190 730 223 b 677 410 730 319 713 371 b 641 443 666 424 654 435 b 590 468 628 451 611 459 b 652 509 617 482 637 496 b 690 557 667 522 679 538 b 720 680 710 592 720 633 b 698 788 720 719 712 754 b 637 869 683 821 663 848 b 498 921 599 899 552 916 b 361 926 462 924 417 926 z "},"Ă":{"ha":686,"x_min":0,"x_max":0,"o":"m 658 926 l 543 926 b 346 901 469 926 403 917 b 223 839 302 888 262 867 b 123 736 185 810 151 776 b 60 605 96 696 75 653 b 37 460 45 556 37 508 b 59 318 37 412 45 365 b 121 190 73 271 94 229 b 290 47 166 126 222 78 b 533 0 358 16 439 0 l 658 0 l 658 220 l 575 220 b 442 240 520 220 476 227 b 352 310 408 254 378 277 b 299 461 317 354 299 404 b 354 620 299 522 317 575 b 440 686 378 650 407 672 b 564 706 473 699 515 706 l 658 706 z "},"ă":{"ha":887,"x_min":0,"x_max":0,"o":"m 56 926 l 56 706 l 307 706 b 432 691 359 706 400 701 b 515 639 463 681 491 663 b 568 558 538 617 555 590 b 588 463 581 526 588 495 b 569 368 588 431 582 399 b 516 288 556 336 538 310 b 429 235 492 264 463 246 b 308 218 395 223 355 218 l 308 570 l 56 570 l 56 0 l 349 0 b 555 30 428 0 497 10 b 664 89 592 42 629 62 b 758 184 700 116 731 148 b 850 460 819 266 850 358 b 804 666 850 533 834 601 b 677 829 773 731 731 785 b 537 902 636 861 590 886 b 359 926 485 918 425 926 z "},"Ą":{"ha":734,"x_min":0,"x_max":0,"o":"m 679 570 l 56 570 l 56 0 l 679 0 l 679 220 l 308 220 l 308 350 l 679 350 z m 679 926 l 56 926 l 56 706 l 679 706 z "},"ą":{"ha":709,"x_min":0,"x_max":0,"o":"m 681 570 l 56 570 l 56 0 l 308 0 l 308 350 l 681 350 z m 681 926 l 56 926 l 56 706 l 681 706 z "},"Ć":{"ha":832,"x_min":0,"x_max":0,"o":"m 832 567 l 832 58 l 832 58 z m 832 347 l 776 347 z m 832 347 l 832 567 z m 776 926 l 583 926 b 349 899 491 926 413 917 b 240 845 312 888 276 870 b 143 758 204 821 172 791 b 64 618 109 716 82 669 b 37 458 46 567 37 513 b 74 269 37 392 49 329 b 180 113 99 208 135 156 b 334 15 225 70 276 38 b 521 -18 392 -7 454 -18 b 718 0 617 -18 682 -12 b 832 58 763 16 801 35 l 832 347 b 770 277 813 320 792 297 b 711 231 748 257 728 242 b 557 194 672 206 621 194 b 393 250 494 194 439 213 b 323 339 363 274 340 303 b 298 455 307 375 298 414 b 314 548 298 487 304 518 b 358 626 324 577 339 603 b 444 687 382 654 410 674 b 569 706 477 700 519 706 l 776 706 z m 832 567 l 496 567 l 496 347 l 832 347 z "},"ć":{"ha":632,"x_min":0,"x_max":0,"o":"m 0 924 l 0 0 l 252 0 l 252 347 l 378 347 l 378 0 l 632 0 l 632 924 l 378 924 l 378 567 l 252 567 l 252 924 z "},"Ĉ":{"ha":363,"x_min":0,"x_max":0,"o":"m 308 570 l 56 570 l 56 0 l 308 0 z m 308 926 l 56 926 l 56 706 l 308 706 z "},"ĉ":{"ha":496,"x_min":0,"x_max":0,"o":"m 440 570 l 188 570 l 188 333 b 183 277 188 309 186 290 b 165 244 179 264 173 253 b 101 222 150 230 129 222 l -12 222 l -12 0 l 168 0 b 353 62 244 0 306 21 b 404 125 373 80 390 101 b 430 197 417 149 426 173 b 440 355 437 237 440 289 z m 440 926 l 188 926 l 188 706 l 440 706 z "},"Ċ":{"ha":633,"x_min":0,"x_max":0,"o":"m 0 0 l 252 0 l 252 289 l 378 0 l 633 0 l 443 492 l 633 924 l 378 924 l 251 662 l 252 924 l 0 924 z "},"ċ":{"ha":616,"x_min":0,"x_max":0,"o":"m 308 926 l 56 926 l 56 0 l 625 0 l 625 220 l 308 220 z "},"Č":{"ha":1120,"x_min":0,"x_max":0,"o":"m 56 926 l 56 0 l 308 0 l 308 706 l 703 706 b 756 701 725 706 742 704 b 789 684 769 697 780 692 b 807 652 798 675 804 664 b 812 595 811 639 812 620 l 812 0 l 1065 0 l 1065 605 b 1051 742 1065 661 1060 706 b 1006 833 1042 777 1027 808 b 893 909 974 874 936 899 b 712 926 849 920 788 926 z m 677 570 l 444 570 l 444 0 l 677 0 z "},"č":{"ha":840,"x_min":0,"x_max":0,"o":"m 56 926 l 56 0 l 308 0 l 308 706 l 430 706 b 515 680 473 706 501 697 b 532 611 527 666 532 643 l 532 0 l 785 0 l 785 623 b 768 755 785 675 779 719 b 716 845 757 791 740 821 b 610 909 685 877 650 898 b 457 926 566 920 515 926 z "},"Ď":{"ha":1027,"x_min":0,"x_max":0,"o":"m 512 944 b 192 825 388 944 281 904 b 78 664 143 781 105 727 b 37 459 51 600 37 532 b 151 141 37 335 75 229 b 312 22 196 89 250 49 b 520 -18 375 -5 444 -18 b 726 23 596 -18 665 -5 b 884 146 787 51 840 92 b 963 290 918 188 944 236 b 990 458 981 343 990 400 b 945 684 990 543 975 618 b 812 848 915 750 871 804 b 672 919 771 878 725 902 b 512 944 620 936 567 944 z m 513 731 b 670 659 579 731 632 707 b 728 463 709 611 728 545 b 672 266 728 379 709 313 b 515 195 634 218 582 195 b 370 251 454 195 406 213 b 317 342 347 275 330 305 b 299 465 305 379 299 420 b 356 660 299 548 318 613 b 513 731 393 707 446 731 z "},"ď":{"ha":744,"x_min":0,"x_max":0,"o":"m 56 926 l 56 706 l 344 706 b 429 690 384 706 412 701 b 454 639 446 680 454 663 b 428 585 454 616 446 598 b 397 573 420 579 410 575 b 342 570 384 571 365 570 l 56 570 l 56 0 l 308 0 l 308 350 l 389 350 b 535 370 449 350 498 356 b 637 437 573 383 607 405 b 696 528 663 463 682 494 b 716 636 709 563 716 599 b 695 746 716 674 709 710 b 637 839 681 782 662 813 b 530 906 607 871 571 893 b 369 926 490 919 436 926 z "},"Đ":{"ha":963,"x_min":0,"x_max":0,"o":"m 512 231 l 801 231 b 878 328 837 269 862 301 b 935 526 916 390 935 456 b 909 663 935 572 927 618 b 837 787 892 709 868 750 b 680 904 794 838 742 877 b 477 944 618 931 550 944 b 279 906 404 944 339 931 b 128 795 220 880 169 843 b 54 666 96 757 71 714 b 28 519 37 619 28 569 b 43 400 28 474 33 435 b 195 165 65 323 116 245 l 356 0 l 699 0 l 401 311 b 314 428 363 351 334 390 b 285 536 295 466 285 502 b 299 607 285 560 290 584 b 340 670 309 631 322 651 b 479 731 378 711 424 731 b 617 673 534 731 580 712 b 673 529 655 634 673 586 b 662 455 673 504 670 480 b 625 376 654 431 642 405 b 512 231 605 342 567 294 z "},"đ":{"ha":718,"x_min":0,"x_max":0,"o":"m 28 926 l 28 706 l 338 706 b 408 689 371 706 394 700 b 428 638 421 676 428 659 b 412 593 428 621 423 606 b 384 575 406 585 396 579 b 328 570 371 571 353 570 l 28 570 l 28 350 l 244 350 b 325 341 278 350 304 347 b 371 314 345 336 361 327 b 396 219 388 295 396 263 l 396 0 l 648 0 l 648 246 b 614 382 648 303 637 348 b 569 424 601 400 586 414 b 496 449 552 434 528 442 b 588 480 535 458 566 468 b 645 532 610 492 629 510 b 690 679 675 571 690 621 b 675 766 690 709 685 738 b 635 838 665 793 652 817 b 572 889 618 858 597 875 b 494 916 547 903 521 911 b 347 926 452 922 403 926 z "},"Ē":{"ha":646,"x_min":0,"x_max":0,"o":"m 326 926 l 65 926 b 56 838 59 889 56 860 b 77 741 56 809 63 776 b 118 670 86 719 99 696 b 197 572 136 645 162 612 b 337 402 271 487 318 431 b 366 320 356 374 366 347 b 340 256 366 297 357 276 b 237 220 320 232 285 220 l 9 220 l 9 0 l 266 0 b 553 110 395 0 490 37 b 608 206 576 137 595 169 b 627 318 621 242 627 280 b 616 405 627 349 624 378 b 579 492 609 431 596 460 b 523 575 565 518 546 546 b 397 723 499 605 458 654 b 335 805 368 756 347 784 b 317 867 323 826 317 847 b 326 926 317 881 320 900 z "},"ē":{"ha":663,"x_min":0,"x_max":0,"o":"m 333 570 l 81 570 l 81 326 b 96 179 81 270 86 221 b 157 72 105 139 125 104 b 244 17 181 47 210 29 b 369 0 279 6 320 0 l 606 0 l 606 222 l 441 222 b 380 229 414 222 394 224 b 349 252 367 233 357 240 b 333 339 338 267 333 296 z m 635 926 l 37 926 l 37 706 l 635 706 z "},"Ĕ":{"ha":841,"x_min":0,"x_max":0,"o":"m 785 926 l 533 926 l 533 220 l 416 220 b 364 224 394 220 377 221 b 334 238 352 227 341 231 b 313 272 324 247 317 258 b 308 337 310 285 308 307 l 308 926 l 56 926 l 56 308 b 84 136 56 232 65 175 b 137 63 97 108 115 83 b 210 19 160 42 184 28 b 351 0 248 6 296 0 l 785 0 z "},"ĕ":{"ha":836,"x_min":0,"x_max":0,"o":"m 854 922 l 585 926 l 459 493 b 412 267 444 442 429 367 b 366 502 393 380 378 458 l 250 926 l -18 926 l 271 0 l 547 0 z "},"Ė":{"ha":1109,"x_min":0,"x_max":0,"o":"m 1128 926 l 865 926 l 746 548 l 614 939 l 455 669 l 746 -15 z m 257 926 l -18 926 l 385 -15 l 536 241 z "},"ė":{"ha":821,"x_min":0,"x_max":0,"o":"m 793 926 l 765 926 b 723 925 750 926 736 925 b 610 905 684 924 647 917 b 514 857 574 893 542 877 b 457 804 491 841 473 823 b 409 724 442 785 426 758 b 369 791 394 753 380 776 b 85 926 306 878 211 923 l 28 926 l 28 703 b 144 679 77 699 116 691 b 220 625 172 668 197 649 b 267 548 240 603 255 577 b 283 458 278 519 283 489 b 236 313 283 404 268 356 b 169 251 217 288 195 267 b 86 221 143 235 115 225 b 28 218 68 219 49 218 l 28 0 b 100 1 58 0 82 0 b 220 23 141 3 181 11 b 319 75 259 36 292 54 b 367 122 338 90 354 105 b 409 193 380 139 394 163 b 489 85 435 146 462 110 b 589 25 516 60 550 40 b 755 0 634 8 689 0 l 793 0 l 793 218 b 683 237 751 218 715 224 b 599 295 651 249 623 269 b 552 371 579 317 563 343 b 536 460 541 400 536 430 b 558 560 536 494 543 528 b 618 643 572 593 593 620 b 691 687 642 663 666 678 b 793 703 717 695 751 701 z "},"Ę":{"ha":791,"x_min":0,"x_max":0,"o":"m 764 926 l 511 926 l 511 703 b 471 576 511 640 498 598 b 395 551 451 559 425 551 b 318 577 364 551 339 559 b 289 622 304 588 295 603 b 280 695 283 640 280 665 l 280 926 l 28 926 l 28 744 b 39 602 28 690 31 643 b 74 503 45 567 56 534 b 142 418 92 471 115 443 b 395 331 207 360 291 331 b 652 423 502 331 588 362 b 717 507 678 447 700 475 b 751 604 735 539 746 571 b 764 765 760 648 764 702 z m 604 220 l 180 220 l 180 0 l 604 0 z "},"ę":{"ha":742,"x_min":0,"x_max":0,"o":"m 557 570 l 281 570 l 28 0 l 707 0 l 707 220 l 402 220 z m 713 926 l 56 926 l 56 706 l 616 706 z "},"Œ":{"ha":1337,"x_min":0,"x_max":0,"o":"m 1281 706 l 1281 926 l 543 926 b 292 880 443 926 360 910 b 123 736 225 849 169 801 b 60 605 96 696 75 653 b 37 461 45 556 37 509 b 59 321 37 415 45 368 b 121 193 74 275 95 232 b 291 47 167 128 224 79 b 533 0 358 16 439 0 l 1281 0 l 1281 220 l 910 220 l 910 350 l 1281 350 l 1281 570 l 658 570 l 658 220 l 575 220 b 443 241 521 220 477 227 b 352 311 408 255 378 278 b 299 463 317 356 299 406 b 354 620 299 522 317 575 b 440 686 378 650 407 672 b 564 706 473 699 515 706 z "},"Š":{"ha":646,"x_min":0,"x_max":0,"o":"m 326 926 l 65 926 b 56 838 59 889 56 860 b 77 741 56 809 63 776 b 118 670 86 719 99 696 b 197 572 136 645 162 612 b 337 402 271 487 318 431 b 366 320 356 374 366 347 b 340 256 366 297 357 276 b 237 220 320 232 285 220 l 9 220 l 9 0 l 266 0 b 553 110 395 0 490 37 b 608 206 576 137 595 169 b 627 318 621 242 627 280 b 616 405 627 349 624 378 b 579 492 609 431 596 460 b 523 575 565 518 546 546 b 397 723 499 605 458 654 b 335 805 368 756 347 784 b 317 867 323 826 317 847 b 326 926 317 881 320 900 z m 234 989 l 414 989 l 534 1184 l 364 1184 l 323 1107 l 278 1184 l 111 1184 z "},"ƒ":{"ha":835,"x_min":0,"x_max":0,"o":"m 807 1019 l 672 1019 b 551 1010 623 1019 582 1016 b 465 980 519 1004 490 994 b 361 873 413 952 379 917 b 327 737 350 846 339 800 l 313 662 l 128 662 l 128 442 l 269 442 l 251 347 l 507 347 l 525 442 l 749 442 l 749 662 l 568 662 b 581 735 573 696 577 721 b 599 771 585 750 591 762 b 630 793 608 781 618 789 b 681 799 642 797 659 799 l 807 799 z m -28 -185 l 106 -185 b 254 -170 168 -185 217 -180 b 354 -120 292 -160 325 -144 b 418 -37 381 -98 402 -71 b 458 96 434 -4 448 41 l 483 222 l 227 222 l 212 142 b 199 91 207 119 203 102 b 183 62 195 79 190 70 b 151 41 174 52 163 45 b 98 35 139 37 121 35 l -28 35 z "},"ˆ":{"ha":694,"x_min":0,"x_max":0,"o":"m 436 1184 l 256 1184 l 136 989 l 306 989 l 347 1066 l 393 989 l 559 989 z "},"ˇ":{"ha":694,"x_min":0,"x_max":0,"o":"m 258 989 l 439 989 l 559 1184 l 389 1184 l 348 1107 l 302 1184 l 136 1184 z "},"ˉ":{"ha":694,"x_min":0,"x_max":0,"o":"m 541 1166 l 153 1166 l 153 1010 l 541 1010 z "},"˘":{"ha":694,"x_min":0,"x_max":0,"o":"m 157 1181 b 180 1095 163 1143 171 1114 b 220 1042 189 1075 202 1057 b 347 996 257 1011 299 996 b 475 1042 395 996 438 1011 b 515 1095 492 1057 506 1075 b 538 1181 524 1114 531 1143 l 424 1181 b 392 1134 414 1159 403 1143 b 347 1120 380 1125 365 1120 b 303 1134 329 1120 314 1125 b 271 1181 291 1143 281 1159 z "},"˙":{"ha":693,"x_min":0,"x_max":0,"o":"m 437 1184 l 256 1184 l 256 989 l 437 989 z "},"˚":{"ha":694,"x_min":0,"x_max":0,"o":"m 347 1254 b 247 1213 308 1254 275 1240 b 206 1114 220 1186 206 1152 b 248 1014 206 1075 220 1041 b 347 972 275 986 308 972 b 446 1014 385 972 419 986 b 488 1114 474 1041 488 1075 b 447 1213 488 1152 474 1186 b 347 1254 419 1240 386 1254 z m 347 1154 b 378 1142 359 1154 369 1150 b 391 1114 386 1134 391 1124 b 378 1084 391 1102 386 1092 b 347 1072 369 1076 359 1072 b 316 1084 335 1072 325 1076 b 303 1114 307 1092 303 1102 b 316 1142 303 1124 307 1134 b 347 1154 325 1150 335 1154 z "},"˛":{"ha":694,"x_min":0,"x_max":0,"o":"m 523 0 b 458 -46 492 -17 470 -33 b 424 -119 435 -70 424 -94 b 462 -195 424 -150 437 -175 b 515 -221 476 -206 494 -215 b 581 -231 537 -228 558 -231 b 678 -218 604 -231 637 -227 l 678 -130 b 615 -141 649 -137 628 -141 b 584 -132 602 -141 592 -138 b 572 -109 576 -126 572 -118 b 659 0 572 -80 601 -44 z "},"˜":{"ha":694,"x_min":0,"x_max":0,"o":"m 178 1142 l 178 991 b 216 1024 192 1007 205 1018 b 257 1032 227 1029 240 1032 b 309 1022 273 1032 290 1029 l 350 1008 b 427 991 379 997 405 991 b 516 1021 460 991 490 1001 l 516 1174 b 443 1135 494 1148 470 1135 b 370 1153 427 1135 403 1141 b 312 1172 342 1163 323 1169 b 275 1176 300 1175 288 1176 b 225 1168 256 1176 240 1173 b 178 1142 211 1163 195 1154 z "},"˝":{"ha":694,"x_min":0,"x_max":0,"o":"m 385 1185 l 197 1185 l 124 991 l 276 991 z m 645 1185 l 458 1185 l 385 991 l 536 991 z "},"π":{"ha":817,"x_min":0,"x_max":0,"o":"m 101 0 l 298 0 l 298 511 l 519 511 l 519 0 l 716 0 l 716 511 l 817 511 l 817 666 l 0 666 l 0 511 l 101 511 z "},"–":{"ha":843,"x_min":0,"x_max":0,"o":"m 787 523 l 56 523 l 56 303 l 787 303 z "},"—":{"ha":1019,"x_min":0,"x_max":0,"o":"m 1019 523 l 0 523 l 0 303 l 1019 303 z "},"‘":{"ha":412,"x_min":0,"x_max":0,"o":"m 97 602 l 315 602 l 315 926 l 208 926 z "},"’":{"ha":412,"x_min":0,"x_max":0,"o":"m 315 926 l 97 926 l 97 602 l 204 602 z "},"‚":{"ha":412,"x_min":0,"x_max":0,"o":"m 315 149 l 97 149 l 97 -176 l 204 -176 z "},"“":{"ha":732,"x_min":0,"x_max":0,"o":"m 98 602 l 316 602 l 316 926 l 209 926 z m 417 602 l 635 602 l 635 926 l 528 926 z "},"”":{"ha":732,"x_min":0,"x_max":0,"o":"m 315 926 l 97 926 l 97 602 l 204 602 z m 635 926 l 416 926 l 416 602 l 524 602 z "},"„":{"ha":732,"x_min":0,"x_max":0,"o":"m 315 149 l 97 149 l 97 -176 l 204 -176 z m 635 149 l 416 149 l 416 -176 l 524 -176 z "},"†":{"ha":833,"x_min":0,"x_max":0,"o":"m 290 431 l 542 431 l 542 568 l 683 568 l 683 787 l 542 787 l 542 1009 l 290 1009 l 290 787 l 151 787 l 151 568 l 290 568 z m 290 -102 l 542 -102 l 542 306 l 290 306 z "},"‡":{"ha":833,"x_min":0,"x_max":0,"o":"m 542 568 l 683 568 l 683 787 l 542 787 l 542 1009 l 290 1009 l 290 787 l 151 787 l 151 568 l 290 568 l 290 340 l 151 340 l 151 120 l 290 120 l 290 -102 l 542 -102 l 542 120 l 683 120 l 683 340 l 542 340 z "},"•":{"ha":385,"x_min":0,"x_max":0,"o":"m 194 663 b 113 646 165 663 138 657 b 47 597 87 634 65 618 b 12 538 32 580 20 560 b 0 471 4 516 0 494 b 47 345 0 423 16 381 b 113 295 65 323 87 307 b 194 278 138 284 165 278 b 318 324 241 278 282 293 b 368 390 339 343 356 365 b 385 471 379 416 385 443 b 368 552 385 499 379 526 b 317 617 356 577 339 599 b 194 663 282 648 241 663 z "},"…":{"ha":1237,"x_min":0,"x_max":0,"o":"m 315 220 l 97 220 l 97 0 l 315 0 z m 727 220 l 509 220 l 509 0 l 727 0 z m 1139 220 l 922 220 l 922 0 l 1139 0 z "},"‰":{"ha":1835,"x_min":0,"x_max":0,"o":"m 261 937 b 83 862 186 937 127 912 b 18 656 40 812 18 743 b 83 453 18 571 40 503 b 260 378 127 403 186 378 b 421 436 325 378 379 397 b 502 655 475 485 502 558 b 422 873 502 749 475 822 b 261 937 379 916 325 937 z m 262 812 b 312 773 284 812 301 799 b 328 653 323 747 328 707 b 312 539 328 601 323 563 b 261 503 301 515 284 503 b 209 540 238 503 220 515 b 192 657 198 565 192 604 b 209 774 192 710 198 750 b 262 812 220 799 238 812 z m 694 926 l 422 0 l 595 0 l 866 926 z m 1021 548 b 843 473 946 548 886 523 b 779 268 800 423 779 355 b 844 64 779 182 800 115 b 1019 -11 887 14 946 -11 b 1181 47 1085 -11 1139 9 b 1261 267 1234 96 1261 169 b 1182 485 1261 361 1234 433 b 1021 548 1139 527 1085 548 z m 1021 423 b 1071 384 1043 423 1060 410 b 1087 264 1082 358 1087 318 b 1071 150 1087 212 1082 174 b 1021 114 1061 126 1044 114 b 969 152 997 114 980 126 b 952 269 958 177 952 216 b 969 386 952 322 958 361 b 1021 423 980 411 997 423 z m 1576 548 b 1399 473 1501 548 1442 523 b 1334 268 1356 423 1334 355 b 1399 64 1334 182 1356 115 b 1575 -11 1442 14 1501 -11 b 1752 63 1650 -11 1709 14 b 1816 267 1795 112 1816 180 b 1737 485 1816 361 1790 433 b 1576 548 1694 527 1640 548 z m 1577 423 b 1626 384 1599 423 1615 410 b 1643 264 1637 358 1643 318 b 1627 151 1643 213 1637 175 b 1576 114 1616 126 1599 114 b 1524 152 1553 114 1535 126 b 1508 269 1513 177 1508 216 b 1524 386 1508 322 1513 361 b 1577 423 1535 411 1553 423 z "},"‹":{"ha":547,"x_min":0,"x_max":0,"o":"m 490 725 l 227 725 l 46 437 l 227 157 l 490 157 l 309 437 z "},"›":{"ha":547,"x_min":0,"x_max":0,"o":"m 56 725 l 237 437 l 56 157 l 319 157 l 500 437 l 319 725 z "},"™":{"ha":1034,"x_min":0,"x_max":0,"o":"m 197 730 l 42 730 l 42 591 b 52 506 42 556 45 527 b 87 450 59 484 71 465 b 214 410 116 423 158 410 l 355 410 l 355 539 l 256 539 b 208 550 231 539 215 543 b 197 599 201 558 197 574 z m 374 926 l 17 926 l 17 796 l 374 796 z m 412 926 l 412 408 l 567 408 l 567 796 l 792 796 b 839 785 816 796 831 792 b 851 740 847 778 851 762 l 851 408 l 1006 408 l 1006 745 b 998 822 1006 777 1004 802 b 971 873 993 842 984 859 b 909 915 954 894 933 908 b 798 926 884 922 847 926 z m 782 730 l 636 730 l 636 406 l 782 406 z "},"Ω":{"ha":859,"x_min":0,"x_max":0,"o":"m 5 0 l 380 0 l 380 169 b 323 204 357 181 338 192 b 279 248 308 216 293 231 b 208 477 232 308 208 384 b 286 698 208 567 234 641 b 430 766 327 743 375 766 b 574 698 485 766 533 743 b 651 475 625 641 651 567 b 636 364 651 435 646 398 b 591 265 627 330 611 297 b 544 211 576 243 560 225 b 479 169 527 196 505 182 l 479 0 l 854 0 l 854 183 l 667 183 b 739 234 697 202 721 218 b 788 287 756 249 773 267 b 859 513 836 349 859 424 b 831 669 859 567 850 619 b 751 804 813 718 786 763 b 607 912 710 851 662 887 b 430 949 552 936 493 949 b 109 804 300 949 193 900 b 28 668 73 763 46 718 b 0 514 9 619 0 567 b 18 390 0 470 6 429 b 72 286 31 350 48 316 b 122 233 88 266 104 248 b 192 183 140 218 163 201 l 5 183 z "},"∂":{"ha":647,"x_min":0,"x_max":0,"o":"m 56 759 b 169 743 105 754 142 749 b 285 703 204 734 242 721 b 389 629 325 686 359 661 b 445 540 399 616 418 587 b 377 584 419 563 396 577 b 279 600 348 594 316 600 b 178 581 244 600 210 593 b 92 527 146 568 117 550 b 24 428 63 500 40 467 b 0 306 8 390 0 349 b 33 160 0 254 11 206 b 124 49 55 115 85 78 b 319 -12 178 9 243 -12 b 567 100 423 -12 506 26 b 628 215 595 134 615 172 b 647 369 641 258 647 310 b 503 748 647 524 599 650 b 329 865 453 798 395 837 b 81 922 262 892 179 911 z m 326 447 b 411 415 357 447 386 436 b 447 365 426 402 438 385 b 460 300 456 345 460 323 b 408 182 460 250 443 211 b 323 151 382 161 354 151 b 235 186 290 151 261 162 b 187 300 203 215 187 253 b 202 366 187 322 192 344 b 241 416 212 387 225 404 b 282 438 253 425 267 433 b 326 447 297 444 312 447 z "},"∆":{"ha":882,"x_min":0,"x_max":0,"o":"m 0 0 l 882 0 l 549 926 l 330 926 z m 268 183 l 441 704 l 608 183 z "},"∏":{"ha":876,"x_min":0,"x_max":0,"o":"m 0 1042 l 0 870 l 101 870 l 101 -176 l 0 -176 l 0 -347 l 375 -347 l 375 -176 l 281 -176 l 281 870 l 588 870 l 588 -176 l 500 -176 l 500 -347 l 876 -347 l 876 -176 l 777 -176 l 777 870 l 876 870 l 876 1042 z "},"∑":{"ha":832,"x_min":0,"x_max":0,"o":"m 820 1042 l 0 1042 l 0 818 l 322 369 l 0 -123 l 0 -347 l 832 -347 l 832 21 l 633 21 l 620 -153 l 238 -153 l 571 370 l 236 847 l 608 847 l 630 683 l 820 683 z "},"∕":{"ha":241,"x_min":0,"x_max":0,"o":"m 174 926 l -96 0 l 76 0 l 347 926 z "},"∙":{"ha":468,"x_min":0,"x_max":0,"o":"m 370 562 l 97 562 l 97 289 l 370 289 z "},"√":{"ha":926,"x_min":0,"x_max":0,"o":"m 926 1148 l 541 1148 l 406 618 b 364 443 387 541 373 483 b 334 277 356 403 345 348 b 320 184 328 242 323 211 l 308 184 l 306 203 b 280 382 296 294 288 354 l 243 524 l 0 524 l 0 353 l 124 353 l 204 0 l 450 0 l 696 977 l 926 977 z "},"∞":{"ha":878,"x_min":0,"x_max":0,"o":"m 442 376 b 542 283 472 336 505 305 b 656 251 578 262 616 251 b 816 312 721 251 775 271 b 878 471 857 353 878 406 b 819 627 878 535 858 587 b 747 675 799 647 775 663 b 659 692 719 686 690 692 b 538 661 616 692 575 681 b 435 568 500 640 466 609 b 371 635 416 593 395 615 b 297 678 345 655 321 669 b 220 692 274 687 248 692 b 70 637 162 692 112 673 b 0 473 23 597 0 542 b 66 309 0 404 22 349 b 220 252 108 271 159 252 b 442 376 302 252 377 293 z m 511 472 b 526 494 510 472 515 480 b 549 522 537 508 544 517 b 638 567 578 552 607 567 b 703 540 663 567 685 558 b 730 475 721 522 730 500 b 704 404 730 446 721 422 b 639 376 687 385 666 376 b 511 472 595 376 552 408 z m 367 471 b 352 449 367 470 362 463 b 328 421 341 435 333 426 b 240 376 300 391 270 376 b 175 403 214 376 192 385 b 148 468 157 421 148 443 b 174 539 148 497 156 521 b 239 567 191 558 212 567 b 367 471 283 567 326 535 z "},"∫":{"ha":580,"x_min":0,"x_max":0,"o":"m 0 -333 b 113 -345 29 -341 67 -345 b 365 -224 234 -345 317 -305 b 401 -86 385 -189 397 -144 b 402 96 402 -71 402 -10 l 402 711 b 404 771 402 740 403 760 b 412 801 406 783 408 793 b 484 842 425 828 449 842 b 545 829 502 842 522 838 l 580 1027 b 458 1042 531 1037 491 1042 b 213 916 342 1042 260 1000 b 179 776 194 881 182 835 b 178 679 178 763 178 731 l 178 604 l 178 52 l 178 -22 b 174 -89 178 -54 176 -76 b 156 -122 171 -102 165 -113 b 93 -146 141 -138 120 -146 b 35 -134 77 -146 58 -142 z "},"≈":{"ha":672,"x_min":0,"x_max":0,"o":"m 108 484 b 154 538 125 510 140 528 b 199 554 168 549 183 554 b 300 524 221 554 254 544 l 357 498 b 454 475 393 483 425 475 b 584 524 505 475 549 491 b 630 579 602 540 617 558 b 672 667 643 599 657 629 l 565 743 b 529 698 549 720 537 705 b 469 675 512 682 492 675 b 436 680 457 675 446 676 b 366 708 426 683 402 693 b 271 743 326 724 294 736 b 213 753 248 750 228 753 b 92 707 166 753 126 738 b 0 559 57 675 27 626 z m 108 174 b 154 229 125 201 140 219 b 199 244 168 239 183 244 b 300 214 221 244 254 234 b 398 175 347 194 380 180 b 454 166 416 169 435 166 b 584 214 505 166 549 182 b 630 270 602 231 617 249 b 672 357 642 290 656 319 l 565 433 b 529 389 549 411 537 396 b 469 366 512 373 492 366 b 436 371 458 366 447 367 b 366 398 425 374 402 383 b 271 433 326 414 295 426 b 213 444 248 440 228 444 b 92 397 166 444 126 428 b 0 250 57 366 27 316 z "},"≠":{"ha":602,"x_min":0,"x_max":0,"o":"m 310 671 l 1 671 l 1 488 l 235 488 l 178 380 l 0 380 l 0 197 l 111 197 l 65 116 l 203 41 l 286 197 l 602 197 l 602 380 l 354 380 l 410 488 l 602 488 l 602 671 l 486 671 l 544 777 l 406 852 z "},"≤":{"ha":602,"x_min":0,"x_max":0,"o":"m 602 904 l 0 679 l 0 493 l 602 267 l 602 475 l 242 585 l 602 696 z m 602 231 l 0 231 l 0 36 l 602 36 z "},"≥":{"ha":602,"x_min":0,"x_max":0,"o":"m 1 267 l 602 493 l 602 679 l 0 904 l 0 696 l 359 585 l 1 475 z m 0 36 l 602 36 l 602 231 l 0 231 z "},"◊":{"ha":721,"x_min":0,"x_max":0,"o":"m 361 962 l 0 463 l 361 -36 l 721 463 z m 361 840 l 634 463 l 361 87 l 87 463 z "}}}
